<svg xmlns="http://www.w3.org/2000/svg" width="31.954" height="22.235" viewBox="0 0 31.954 22.235">
  <g id="Component_21_2" data-name="Component 21 – 2" transform="translate(1 1.019)">
    <path id="Path_9524" data-name="Path 9524" d="M3487,569.141V554.117a11.187,11.187,0,0,0-6.066-2.584c-3.788-.417-5.24.39-5.24.39v15.189a14.736,14.736,0,0,1,5.91-.378A12.854,12.854,0,0,1,3487,569.141Z" transform="translate(-3472.06 -551.413)" fill="none" stroke="#acb1b4" stroke-linejoin="round" stroke-width="2"/>
    <path id="Path_9524-2" data-name="Path 9524" d="M3475.693,569.141V554.117a11.187,11.187,0,0,1,6.066-2.584c3.788-.417,5.24.39,5.24.39v15.189a14.736,14.736,0,0,0-5.91-.378A12.858,12.858,0,0,0,3475.693,569.141Z" transform="translate(-3460.754 -551.413)" fill="none" stroke="#acb1b4" stroke-linejoin="round" stroke-width="2"/>
    <path id="Path_9633" data-name="Path 9633" d="M0,52.524a27.876,27.876,0,0,1,7.892-.31,16.561,16.561,0,0,1,7.123,2V36.572H11.609" transform="translate(14.939 -33.996)" fill="none" stroke="#acb1b4" stroke-linecap="round" stroke-linejoin="round" stroke-width="2"/>
    <path id="Path_9634" data-name="Path 9634" d="M14.939,52.524a27.6,27.6,0,0,0-7.852-.31,16.42,16.42,0,0,0-7.087,2V36.572H3.388" transform="translate(0 -33.996)" fill="none" stroke="#acb1b4" stroke-linecap="round" stroke-linejoin="round" stroke-width="2"/>
  </g>
</svg>
