<svg xmlns="http://www.w3.org/2000/svg" xmlns:xlink="http://www.w3.org/1999/xlink" width="351.842" height="308.255" viewBox="0 0 351.842 308.255">
  <defs>
    <clipPath id="clip-path">
      <path id="Path_9305" data-name="Path 9305" d="M165.621,382.857s16.4,3.159,19.611,13.823,7.964,48.14,6.382,53.71-3.587,11.857-35.357,11.948-31.006-4.529-34.222-8.836-4.922-42.416,3.349-55.377S145.548,383.9,145.548,383.9s.7,5.406,10.709,5.406S165.621,382.857,165.621,382.857Z" transform="translate(-120.434 -382.857)" fill="none"/>
    </clipPath>
  </defs>
  <g id="Component_183" data-name="Component 183" transform="translate(0)">
    <circle id="Ellipse_1205" data-name="Ellipse 1205" cx="154" cy="154" r="154" transform="translate(28.142 0.255)" fill="#fff"/>
    <g id="Group_2982" data-name="Group 2982" transform="translate(50.284 33.693)">
      <g id="Group_2977" data-name="Group 2977" transform="translate(27.073 33.586)">
        <path id="Path_9259" data-name="Path 9259" d="M133.666,260.345a14.366,14.366,0,0,1-3.838,1.817c-2.693.853-5.516,1.139-8.254,2.061a16.716,16.716,0,0,0-4.794,2.522,17.236,17.236,0,0,0-5.576,7.637,17.712,17.712,0,0,0-.995,6.008l-.489-2.011-.5-2.062c-.189-.753-.382-1.558-.531-2.373-.649-3.248-1.3-6.5-1.3-6.5a16.41,16.41,0,0,1,2.664-4.815,26.316,26.316,0,0,1,3.644-3.774c1.136-.968,2.33-1.859,3.52-2.772.6-.457,1.186-.918,1.777-1.4s1.2-.981,1.776-1.51a29.9,29.9,0,0,0,3.827-4.253c.564-.757,1.093-1.532,1.587-2.315s.945-1.576,1.419-2.373c.925-1.6,1.736-3.207,2.486-4.816.375-.8.735-1.608,1.088-2.409s.759-1.6,1.13-2.4a18.506,18.506,0,0,1-3.641,3.2,33.79,33.79,0,0,1-4.36,2.467,92.639,92.639,0,0,0-9.051,4.473,22.987,22.987,0,0,0-2.515,1.813,21.554,21.554,0,0,0-2.261,2.228,20.835,20.835,0,0,0-2.832,4.2,19.519,19.519,0,0,0-1.807,4.987l-.223-1.427c-.1-.861-.23-2.01-.361-3.159l-.525-4.594q.237-.846.542-1.627.334-.784.726-1.507a19.1,19.1,0,0,1,1.758-2.68,27.38,27.38,0,0,1,4.343-4.325c1.139-.928,2.394-1.794,3.662-2.716a34,34,0,0,0,3.7-3.051,22.49,22.49,0,0,0,3.76-4.826,18.542,18.542,0,0,0,2.343-5.773,24.376,24.376,0,0,0,.409-2.917,19.112,19.112,0,0,0,.059-2.847,23.356,23.356,0,0,0-.98-5.407c.106,3.128-1.705,6.109-4.046,8.237-2.287,2.2-4.933,3.546-7.5,5.313a26.4,26.4,0,0,0-4.473,3.9,23.3,23.3,0,0,0-4.932,9.574c-.057.262-.1.527-.146.791l-.035-.484c-.028-.308-.05-.75-.061-1.28l-.118-3.887-.118-3.887c-.019-.53-.03-.972-.02-1.281l.006-.486,1.766-5.629q.428-1.4.857-2.8l.956-2.786c.552-1.619,1.1-3.237,1.576-4.87q.342-1.225.686-2.462c.221-.825.411-1.658.561-2.5a34.137,34.137,0,0,0,.447-6.18,42.086,42.086,0,0,0-.416-6.186c-.128-1.022-.338-2.049-.475-3.059s-.321-2.022-.508-3.033c-.372-2.022-.8-4.048-1.227-6.091a18.52,18.52,0,0,1-.962,5.368c-.282.871-.615,1.729-.981,2.574l-1.124,2.5c-.761,1.636-1.6,3.239-2.413,4.872-.406.817-.8,1.641-1.181,2.481-.362.841-.666,1.7-.954,2.58a32.275,32.275,0,0,0-1.368,6.591,38.609,38.609,0,0,0,.807,10.077c.781,3.3,1.805,6.5,2.75,9.6l.209,6.866.08,2.521c.058.8.112,1.552.159,2.194l.154,2.141a35.194,35.194,0,0,0-1.112-3.778c-.438-1.254-.858-2.5-1.368-3.725a66.284,66.284,0,0,0-4.687-9.5c-2.082-3.4-4.686-6.247-6.818-9.225a32.937,32.937,0,0,1-3-4.787,19.738,19.738,0,0,1-1.132-2.787,16.944,16.944,0,0,1-.592-3.15l-.34,2.9q-.112,1.45-.225,2.906c-.125,1.959-.192,3.985-.168,6a26.4,26.4,0,0,0,.184,3.037c.108,1.015.249,2.029.43,3.035a29.432,29.432,0,0,0,1.643,5.887,25.914,25.914,0,0,0,1.7,3.239,29.439,29.439,0,0,0,5.545,6.585c1.268,1.12,2.554,2.138,3.817,3.149,1.233.984,2.442,1.985,3.561,3.07a27.143,27.143,0,0,1,3.086,3.567l.786,6.884c.084.862.225,1.717.352,2.52s.242,1.551.343,2.193l.335,2.139a20.042,20.042,0,0,0,.348,3.69A41.751,41.751,0,0,0,102.4,257.9a31.9,31.9,0,0,0-5.771-8.614,25.942,25.942,0,0,0-4.922-3.878,30.772,30.772,0,0,0-5.509-2.6,70.928,70.928,0,0,0-11.341-2.75c3.09,1.5,5.585,4.255,7.574,7.121.5.718.963,1.448,1.43,2.178l1.421,2.184c.932,1.448,1.846,2.87,2.827,4.189a28.344,28.344,0,0,0,3.867,4.29,55.015,55.015,0,0,0,7.3,5.291,56.525,56.525,0,0,1,7.454,5.421c-.129-.864-.311-1.73-.522-2.6l.233.657s.447,2.24.894,4.48c.22,1.12.44,2.241.66,3.07l.338,1.387c-.394-.578-.809-1.147-1.263-1.689a21.892,21.892,0,0,0-7.465-6.381,19.527,19.527,0,0,0-5.393-1.7,27.064,27.064,0,0,0-5.194-.328c-3.369.073-6.6.606-10.11.368a19.861,19.861,0,0,1,4.048,2.158,45.419,45.419,0,0,1,3.86,2.871c2.488,2.026,4.809,4.209,7.212,5.842.732.489,1.466.929,2.187,1.317.689.388,1.383.728,2.074,1.045,2.25,1.019,4.485,1.6,6.756,2.378a18.655,18.655,0,0,1,2.879,1.253,12.508,12.508,0,0,1,2.717,1.907s.269.933.673,2.333c.418,1.4.908,3.278,1.514,5.123l2.465,7.371a27.182,27.182,0,0,0-4.9-4.619,33.878,33.878,0,0,0-8.71-4.994,35.751,35.751,0,0,0-10.676-1.7c-3.422-.165-6.777-.239-10.373-1.794,1.357,1.058,2.592,2.219,3.9,3.4l3.952,3.611c1.32,1.2,2.667,2.376,4.049,3.456a30.028,30.028,0,0,0,4.393,2.826,26.562,26.562,0,0,0,5.381,2.053,50.614,50.614,0,0,0,8.26,1.173,21.649,21.649,0,0,1,6.565,1.52L118.465,310c.376,1.049.912,2.233,1.461,3.511l1.731,4,.879,2.033c.3.667.627,1.307.927,1.935.607,1.253,1.174,2.421,1.66,3.423l1.62,3.339,1.064-.545-1.715-3.535c-1.019-2.126-2.452-4.926-3.646-7.836-1.236-2.89-2.542-5.751-3.332-7.974l-1.4-3.67a22.648,22.648,0,0,1,5.623-9.1c2-2.088,4.241-3.888,6.165-6.038.589-.655,1.141-1.344,1.687-2.073s1.083-1.493,1.58-2.28a32.225,32.225,0,0,0,2.561-4.957c.35-.852.657-1.714.917-2.579s.539-1.75.737-2.62a22.836,22.836,0,0,0,.617-5.114c-.832,2.846-3.407,5.2-6.078,6.9-2.683,1.731-5.66,3.032-8.28,4.991a19.8,19.8,0,0,0-4.3,4.381,19.263,19.263,0,0,0-3.517,9.933c-.052.651-.062,1.3-.053,1.956l-.752-2.248-.771-2.3c-.284-.843-.519-1.763-.79-2.672l-1.445-5.013-.476-1.651-.159-.633-.063-.308a18.306,18.306,0,0,1,7.786-6.836c2.262-1.139,4.645-1.978,6.826-3.291a22.235,22.235,0,0,0,3.851-2.977,25.487,25.487,0,0,0,3.371-3.894,20.8,20.8,0,0,0,2.391-4.414c.148-.378.277-.756.4-1.135s.255-.762.36-1.141a14.078,14.078,0,0,0,.435-2.245A7.615,7.615,0,0,1,133.666,260.345Z" transform="translate(-74.861 -182.058)" fill="#b3e3df"/>
      </g>
      <path id="Path_9260" data-name="Path 9260" d="M415.16,218a40.252,40.252,0,0,0,17.56-11.079,12.4,12.4,0,0,0,2.626-3.838,5.272,5.272,0,0,0-.179-4.518c-1.132-1.911-3.7-2.559-5.874-2.1a16.166,16.166,0,0,0-5.856,3.07,17.8,17.8,0,0,0-.625-7.223c-.759-2.233-2.784-4.219-5.142-4.143a5.476,5.476,0,0,0-4.2,2.632,13.005,13.005,0,0,0-1.678,4.838C410.38,203.293,412.491,210.695,415.16,218Z" transform="translate(-37.831 -331.804) rotate(21)" fill="#fff"/>
      <path id="Path_9261" data-name="Path 9261" d="M122.591,147.83a38.039,38.039,0,0,0,3.177-12.983,8.886,8.886,0,0,0-.376-3.8,3.57,3.57,0,0,0-2.782-2.367,3.67,3.67,0,0,0-3.4,2.207,10.772,10.772,0,0,0-.817,4.207c-1.351-1.027-2.862-2.4-4.532-2.709s-3.657.405-4.228,2c-.613,1.716.586,3.517,1.809,4.866A40.125,40.125,0,0,0,122.591,147.83Z" transform="translate(-134.414 -128.106) rotate(-14)" fill="#fff"/>
      <path id="Path_9262" data-name="Path 9262" d="M51.313,185.1a9.922,9.922,0,0,1,1.789-7.359c1.64-2.008,4.679-2.976,6.957-1.736,2.369,1.289,3.14,4.278,3.508,6.95a64.886,64.886,0,0,1-1.279,24.313A31.915,31.915,0,0,1,40.68,195.345a13.579,13.579,0,0,1-2.834-5.634,6.438,6.438,0,0,1,1.646-5.873,6.767,6.767,0,0,1,5.957-1.315A20.6,20.6,0,0,1,51.313,185.1Z" transform="matrix(0.788, -0.616, 0.616, 0.788, -188.026, -91.094)" fill="#fff"/>
      <g id="Group_2978" data-name="Group 2978" transform="translate(185.71 65.435)">
        <path id="Path_9263" data-name="Path 9263" d="M378.976,310.738a9.666,9.666,0,0,1-3.731.159c-2.445-.332-4.723-1.243-7.224-1.56a14.868,14.868,0,0,0-4.768.163,18.325,18.325,0,0,0-11.077,7.656l.6-1.692c.347-1.02.875-2.358,1.291-3.734l1.724-5.482a19.825,19.825,0,0,1,3.912-2.783,27.411,27.411,0,0,1,4.252-1.8,64.4,64.4,0,0,0,7.677-2.6,26.851,26.851,0,0,0,8.424-6.606c1.185-1.377,2.288-2.842,3.348-4.355s2.089-3.072,3.025-4.66a16.916,16.916,0,0,1-8.083,4.209c-2.891.751-5.825,1.144-8.656,2.062a22.719,22.719,0,0,0-2.525.983,23.083,23.083,0,0,0-2.535,1.324,21.071,21.071,0,0,0-3.569,2.732,25.993,25.993,0,0,0-3.022,3.5l.331-1.209.63-2.685.917-3.9c.294-.42.6-.817.922-1.2s.62-.742.948-1.085a18.143,18.143,0,0,1,2.082-1.863,29.715,29.715,0,0,1,4.657-2.851,42.423,42.423,0,0,0,7.327-4.049,19.405,19.405,0,0,0,4.069-4.24,20.6,20.6,0,0,0,2.67-5.709,18.6,18.6,0,0,0,.645-3.016,24.374,24.374,0,0,0,.164-2.988,25.371,25.371,0,0,0-.664-5.633,12.017,12.017,0,0,1-3.789,8.359c-2.158,2.08-4.631,3.173-7.006,4.586a27.334,27.334,0,0,0-4.236,3.088,23,23,0,0,0-5.786,7.553c-.108.209-.2.423-.3.636l.081-.414c.057-.263.123-.64.191-1.1l.526-3.332c.191-1.212.383-2.423.527-3.332.074-.454.131-.833.159-1.1l.05-.419q1.041-2.333,2.05-4.713l1-2.4.9-2.435a37.663,37.663,0,0,0,2.455-8.866,25.621,25.621,0,0,0,.065-5.627,39.1,39.1,0,0,0-2.859-10.681c-.689-1.682-1.426-3.323-2.161-4.944a16.015,16.015,0,0,1,.174,4.717,22.34,22.34,0,0,1-.949,4.623c-.466,1.489-1,2.938-1.513,4.387-.255.725-.5,1.449-.729,2.18s-.488,1.466-.688,2.213a25.859,25.859,0,0,0-.876,5.52,33.559,33.559,0,0,0,.51,8.416c.377,2.791.976,5.588,1.487,8.355,0,0-.461,2.913-.92,5.827-.116.729-.232,1.456-.34,2.14-.133.678-.257,1.311-.364,1.854-.213,1.085-.355,1.809-.355,1.809a25.333,25.333,0,0,0-.61-6.707,31.411,31.411,0,0,0-2.745-8.409,47.807,47.807,0,0,0-5.276-7.757,29.851,29.851,0,0,1-2.525-3.706,14.106,14.106,0,0,1-.942-2.07,12.749,12.749,0,0,1-.659-2.306c-.049.709-.1,1.414-.147,2.12q-.116,1.056-.232,2.116c-.134,1.426-.219,2.9-.226,4.381a41.416,41.416,0,0,0,.143,4.482,23.482,23.482,0,0,0,.919,4.518,19.574,19.574,0,0,0,.991,2.63A26.243,26.243,0,0,0,350,276.44a37.744,37.744,0,0,0,2.436,3.53c.829,1.1,1.689,2.158,2.526,3.229a32.435,32.435,0,0,1,2.3,3.268,15.056,15.056,0,0,1,1.666,3.683l-1.361,5.794c-.331,1.451-.769,2.874-1.051,3.954l-.492,1.794a19.032,19.032,0,0,0-1.041,3,32.731,32.731,0,0,0,.351-7.645,22.082,22.082,0,0,0-2.2-8.378,19.844,19.844,0,0,0-7.25-7.311,53.343,53.343,0,0,0-8.993-4.156,14.6,14.6,0,0,1,4.959,6.4c.27.613.522,1.236.745,1.86s.406,1.244.6,1.867c.384,1.246.757,2.489,1.206,3.7a40.357,40.357,0,0,0,1.891,4.21,67.708,67.708,0,0,0,4.006,6.314,29.286,29.286,0,0,1,3.625,6.923c.26-.7.481-1.431.679-2.169l-.1.59-1.177,3.743c-.292.936-.583,1.873-.842,2.562l-.411,1.156a16.763,16.763,0,0,0-.125-1.787,16.194,16.194,0,0,0-3.032-7.749,18.13,18.13,0,0,0-7.472-5.359c-2.682-1.156-5.406-1.955-8.113-3.307a15.787,15.787,0,0,1,2.528,2.769,27.519,27.519,0,0,1,1.917,3.215c1.141,2.221,2.13,4.587,3.247,6.67.325.623.673,1.221,1.031,1.788.335.551.692,1.081,1.056,1.6,1.191,1.679,2.553,3.111,3.831,4.741a15.012,15.012,0,0,1,1.487,2.281,9.466,9.466,0,0,1,.886,2.664l-.772,1.938c-.474,1.158-1.055,2.723-1.722,4.253l-2.7,6.1a21.161,21.161,0,0,0-.475-5.73,20.645,20.645,0,0,0-3.213-7.783,27.116,27.116,0,0,0-6.634-6.251,34.2,34.2,0,0,1-6.773-5.751,28.161,28.161,0,0,1,1.413,3.616c.381,1.232.723,2.5,1.093,3.809.36,1.29.737,2.608,1.176,3.914a34.181,34.181,0,0,0,1.458,3.812,27.292,27.292,0,0,0,2.41,4.083c1.427,2.021,3.09,3.7,4.584,5.473a16.114,16.114,0,0,1,3,4.883l-1.4,2.864c-.832,1.722-2.087,3.943-3.275,6.2l-.9,1.677c-.3.549-.625,1.076-.924,1.594l-1.651,2.818-1.611,2.749.883.54,1.723-2.941c1.026-1.769,2.45-4.1,3.7-6.522,1.278-2.409,2.609-4.791,3.468-6.649l1.495-3.064a25.859,25.859,0,0,1,9.079-2.43c2.531-.237,5.062-.192,7.647-.673a20.118,20.118,0,0,0,4.759-1.521,26.8,26.8,0,0,0,4.655-2.719c.75-.541,1.48-1.127,2.185-1.75a25.754,25.754,0,0,0,1.956-2,28.708,28.708,0,0,0,3.262-4.5,11.261,11.261,0,0,1-8.055,3.17c-2.82.077-5.523-.391-8.456-.257a19.741,19.741,0,0,0-5.383,1.01,22,22,0,0,0-7.927,4.918c-.415.392-.8.806-1.178,1.23l.832-1.882.852-1.928c.313-.705.6-1.478.908-2.24l1.674-4.2c.228-.574.418-1.051.551-1.386l.193-.532.1-.253a17.27,17.27,0,0,1,8.911-1.326,58.589,58.589,0,0,0,6.6.6,15.78,15.78,0,0,0,4.328-.748,19.308,19.308,0,0,0,4.334-2.041,20.465,20.465,0,0,0,3.922-3.21,17.159,17.159,0,0,0,2.89-4.091A6.729,6.729,0,0,1,378.976,310.738Z" transform="translate(-327.027 -232.685)" fill="#b3e3df"/>
      </g>
      <g id="Group_2979" data-name="Group 2979" transform="translate(5.993 114.691)">
        <path id="Path_9264" data-name="Path 9264" d="M94.312,423.124l2.033,2.835c.589.866,1.37,1.806,2.184,2.831l.406.509h1.437c-1.449-1.808-2.848-3.536-3.831-4.994l-2.151-3a20.77,20.77,0,0,1,2.994-9.577c1.346-2.357,2.974-4.5,4.242-6.882.39-.726.735-1.471,1.073-2.252s.661-1.594.943-2.414a30.458,30.458,0,0,0,1.264-5.027c.137-.841.232-1.68.284-2.51.067-.837.128-1.686.128-2.508a20.489,20.489,0,0,0-.492-4.7c-.174,2.716-2.033,5.395-4.111,7.518-2.08,2.152-4.524,3.994-6.482,6.346a18.342,18.342,0,0,0-2.955,4.93,17.663,17.663,0,0,0-.967,9.828c.1.6.245,1.2.4,1.792l-1.2-1.873-1.234-1.919c-.453-.7-.87-1.49-1.322-2.258l-2.44-4.248-.8-1.4-.282-.543-.125-.268a17.059,17.059,0,0,1,5.636-7.93c1.823-1.525,3.822-2.8,5.537-4.463a21.414,21.414,0,0,0,2.9-3.515,24.477,24.477,0,0,0,2.292-4.225,19.376,19.376,0,0,0,1.3-4.458c.105-.732.193-1.468.247-2.194a12.661,12.661,0,0,0-.035-2.1,7.176,7.176,0,0,1-1.856,3.269,13.9,13.9,0,0,1-3.152,2.436c-2.292,1.332-4.819,2.182-7.136,3.588a15.67,15.67,0,0,0-3.87,3.292,16.019,16.019,0,0,0-3.51,8.141,16.5,16.5,0,0,0,.389,5.7l-.883-1.732-.906-1.775c-.337-.647-.687-1.341-.993-2.056l-2.551-5.674a15,15,0,0,1,1.453-4.956,24.265,24.265,0,0,1,2.579-4.19c.847-1.113,1.764-2.165,2.674-3.234s1.821-2.16,2.69-3.354a33.39,33.39,0,0,0,4.569-9.425c.557-1.618,1.007-3.223,1.4-4.811q.278-1.181.559-2.368c.169-.783.415-1.58.615-2.36a23.179,23.179,0,0,1-6.334,6.607,83.259,83.259,0,0,0-7.491,5.79,21.34,21.34,0,0,0-1.971,2.14,19.837,19.837,0,0,0-1.644,2.474,19.327,19.327,0,0,0-1.781,4.4,17.73,17.73,0,0,0-.67,4.933l-.494-1.263c-.26-.772-.605-1.8-.951-2.83l-1.384-4.116a15.936,15.936,0,0,1,.179-1.6q.159-.786.382-1.526a17.77,17.77,0,0,1,1.11-2.8,25.207,25.207,0,0,1,3.183-4.778c.873-1.061,1.87-2.085,2.872-3.162a32.806,32.806,0,0,0,2.86-3.459,21.186,21.186,0,0,0,2.6-5.057,16.929,16.929,0,0,0,1.169-5.637,23.347,23.347,0,0,0-.121-2.706,17.055,17.055,0,0,0-.415-2.584,21.284,21.284,0,0,0-1.8-4.732c.614,2.815-.564,5.813-2.374,8.149-1.738,2.386-3.942,4.075-6,6.143a24.324,24.324,0,0,0-3.446,4.372,21.612,21.612,0,0,0-2.8,9.7c0,.251.009.5.015.755l-.124-.439c-.086-.278-.188-.68-.293-1.167l-.818-3.559c-.3-1.294-.6-2.589-.818-3.559-.115-.484-.205-.89-.249-1.177l-.08-.449q.322-2.749.644-5.5.151-1.359.3-2.723.208-1.362.416-2.73c.238-1.585.478-3.167.64-4.748l.105-1.186.125-1.193c.072-.8.115-1.594.119-2.394a32.535,32.535,0,0,0-.571-5.762A39.2,39.2,0,0,0,66,321.942c-.272-.925-.632-1.843-.9-2.755s-.591-1.823-.91-2.732c-.639-1.818-1.331-3.635-2.02-5.473a17.408,17.408,0,0,1-.116,5.121,50.387,50.387,0,0,1-1.208,5.015c-.456,1.633-.99,3.249-1.493,4.892-.251.822-.494,1.65-.715,2.489-.2.838-.343,1.685-.471,2.548a30.493,30.493,0,0,0-.205,6.346,36.193,36.193,0,0,0,2.439,9.213c1.3,2.918,2.808,5.7,4.224,8.393l1.446,6.294c.182.786.364,1.572.535,2.309l.562,1.99c.329,1.165.548,1.942.548,1.942a33.3,33.3,0,0,0-1.74-3.271c-.642-1.073-1.251-2.151-1.945-3.185a67.354,67.354,0,0,0-6.038-7.949c-2.515-2.788-5.439-4.986-7.9-7.41a30.926,30.926,0,0,1-3.588-3.975,18.938,18.938,0,0,1-1.517-2.426,16.074,16.074,0,0,1-1.059-2.864c.052.929.1,1.854.155,2.779q.142,1.381.284,2.766c.217,1.86.5,3.774.866,5.666a23.04,23.04,0,0,0,.7,2.816c.28.932.59,1.857.936,2.768a27.817,27.817,0,0,0,2.566,5.217,24.645,24.645,0,0,0,2.169,2.715,28.124,28.124,0,0,0,2.338,2.262,27.429,27.429,0,0,0,3.99,2.849c1.382.8,2.76,1.5,4.114,2.2,1.323.678,2.625,1.375,3.861,2.162a26.889,26.889,0,0,1,3.524,2.692l2.075,6.174c.506,1.548,1.163,3.042,1.589,4.186l.742,1.895a18.675,18.675,0,0,0,1.071,3.317,39.546,39.546,0,0,0-4.725-7.013,30.632,30.632,0,0,0-7.009-6.809,25.19,25.19,0,0,0-5.276-2.651,29.332,29.332,0,0,0-5.57-1.382,67.621,67.621,0,0,0-10.973-.457,20.078,20.078,0,0,1,8.352,5.248c.6.576,1.165,1.169,1.738,1.761l1.744,1.76c1.146,1.168,2.271,2.313,3.437,3.348a25.782,25.782,0,0,0,4.419,3.217,50.3,50.3,0,0,0,7.783,3.415,56.543,56.543,0,0,1,7.965,3.435c-.3-.764-.649-1.519-1.024-2.269l.352.554,1.761,3.917c.437.98.873,1.962,1.257,2.671l.61,1.2c-.486-.443-.99-.874-1.522-1.273a20.892,20.892,0,0,0-8.188-4.29,18.542,18.542,0,0,0-5.305-.454,25.344,25.344,0,0,0-4.83.756c-3.074.753-5.929,1.906-9.2,2.392a18.877,18.877,0,0,1,4.166,1.193,44.431,44.431,0,0,1,4.161,1.875c2.72,1.367,5.311,2.907,7.868,3.907.779.3,1.548.545,2.294.749.717.21,1.427.376,2.129.52a66.471,66.471,0,0,0,6.7.725,17.6,17.6,0,0,1,2.9.521,11.911,11.911,0,0,1,2.91,1.139l1.137,1.98c.7,1.179,1.559,2.792,2.535,4.335l3.952,6.145A25.811,25.811,0,0,0,85.929,416a33.155,33.155,0,0,0-9.092-2.613,34.042,34.042,0,0,0-10.152.781c-3.174.593-6.252,1.248-9.9.569,1.483.694,2.871,1.514,4.345,2.325l4.457,2.485c1.486.819,2.99,1.613,4.5,2.305a27.688,27.688,0,0,0,4.684,1.618,24.574,24.574,0,0,0,5.4.662,45.537,45.537,0,0,0,7.8-.838A20.639,20.639,0,0,1,94.312,423.124Z" transform="translate(-41.352 -310.981)" fill="#b3e3df"/>
      </g>
      <g id="Group_2980" data-name="Group 2980" transform="translate(187.474 124.739)">
        <path id="Path_9265" data-name="Path 9265" d="M411.9,366.508a16.427,16.427,0,0,1-4.534,3.423,20.663,20.663,0,0,1-4.806,1.59c-1.577.34-3.132.566-4.743.834a37.129,37.129,0,0,0-5.932,1.549,32.026,32.026,0,0,0-9.6,5.362c-.211.168-.412.347-.617.522l.279-.4c.177-.252.437-.608.723-1.051l2.136-3.23c.753-1.19,1.476-2.4,2.031-3.3s.9-1.513.9-1.513c1.4-1.357,2.883-2.7,4.207-4.173l2.038-2.21c.666-.754,1.295-1.539,1.947-2.325.557-.692,1.151-1.373,1.677-2.1s1.046-1.465,1.551-2.223a26.587,26.587,0,0,0,2.6-4.856,19.093,19.093,0,0,0,1.032-3.22,24.7,24.7,0,0,0,.619-3.327,29.575,29.575,0,0,0-.017-6.7,41.81,41.81,0,0,0-3.468-12.211,16.361,16.361,0,0,1,.194,2.7,12.5,12.5,0,0,1-.263,2.705,27.16,27.16,0,0,1-.7,2.626c-.142.427-.269.851-.446,1.264s-.367.818-.558,1.217c-.382.8-.781,1.574-1.183,2.337-.388.764-.9,1.5-1.331,2.236-.449.735-.888,1.466-1.3,2.2-.463.727-.91,1.458-1.319,2.207a40.321,40.321,0,0,0-2.542,5.613,31.187,31.187,0,0,0-1.376,4.459c-.427,1.5-.725,3.052-1.023,4.617-.341,1.547-.6,3.14-.894,4.722-.329,1.566-.617,3.162-.975,4.723l-1.1,1.8-1.128,1.842-1.366,2.067c-.469.7-.923,1.412-1.374,2.062l-1.249,1.765-1.219,1.722a30.19,30.19,0,0,0,2.517-7.267,34.9,34.9,0,0,0,.791-5.063,24.439,24.439,0,0,0-.027-4.881,26.388,26.388,0,0,0-1.085-5.251c-.245-.829-.508-1.636-.774-2.426l-.89-2.338c-.574-1.514-1.105-3.02-1.56-4.549a14.19,14.19,0,0,1-.454-2.3,13.7,13.7,0,0,1-.113-2.356c-.245.637-.452,1.271-.718,1.906l-.829,1.906c-.486,1.3-1.129,2.648-1.6,4.046a34.747,34.747,0,0,0-1.365,4.378,24.72,24.72,0,0,0-.8,4.8,21.642,21.642,0,0,0-.013,3.078c.079,1.016.149,2.02.287,3.015a93.183,93.183,0,0,0,2.09,9.253,30.609,30.609,0,0,1,.8,4.475,17.432,17.432,0,0,1-.1,4.619s-2.1,2.684-4.314,5.281-4.482,5.152-4.482,5.152a21.151,21.151,0,0,0-2.608,2.555,34.815,34.815,0,0,0,4.234-7.705,23.438,23.438,0,0,0,1.916-9.7,18.412,18.412,0,0,0-1.265-5.824,24.594,24.594,0,0,0-2.739-5.166,59.612,59.612,0,0,0-7.5-8.52,15.227,15.227,0,0,1,2.293,8.744,32.978,32.978,0,0,1-.369,4.409c-.185,1.458-.393,2.909-.55,4.353a46.542,46.542,0,0,0-.172,5.256c.038,1.424.173,2.835.35,4.257s.367,2.845.558,4.306a37.372,37.372,0,0,1,.294,9.007c.614-.6,1.2-1.254,1.763-1.926l-.387.568-3.066,3.31-3.087,3.3a19.77,19.77,0,0,0,.7-1.949,19.122,19.122,0,0,0,.693-9.576,20.989,20.989,0,0,0-5-9.327c-2.177-2.542-4.585-4.735-6.676-7.5a18.093,18.093,0,0,1,1.148,4.165,34.543,34.543,0,0,1,.316,4.4c.048,2.945-.212,5.941-.089,8.71.029.834.1,1.647.192,2.428.079.755.194,1.493.325,2.219.437,2.357,1.178,4.518,1.765,6.823a13.95,13.95,0,0,1,.3,6.334l-5.239,5.641c-2.608,2.834-5.153,5.731-5.153,5.731a27.84,27.84,0,0,0,1.571-6.485,29.054,29.054,0,0,0-.182-9.877,33.394,33.394,0,0,0-4.2-9.745c-1.667-2.907-3.473-5.739-4.283-9.388a76.932,76.932,0,0,1-1.251,9.682,47.453,47.453,0,0,0-.861,10.074,27.315,27.315,0,0,0,.928,5.584,56.455,56.455,0,0,0,3.038,7.709,20.947,20.947,0,0,1,1.819,6.4s-1.661,1.951-3.8,4.635h1.526c2.335-2.9,4.168-5.018,4.168-5.018a23.781,23.781,0,0,1,10.639.431c2.788.694,5.481,1.729,8.333,2.292a27.287,27.287,0,0,0,5.479.5,29.894,29.894,0,0,0,5.749-.584,28.639,28.639,0,0,0,5.622-1.716,27.151,27.151,0,0,0,5.106-2.8c-3.156,1.2-6.635.466-9.538-.795-2.944-1.259-5.608-3.011-8.695-4.188a20.589,20.589,0,0,0-16.387.708,18.4,18.4,0,0,0-1.721.912s2.52-2.806,5.088-5.567l5.153-5.51.223-.219a19.09,19.09,0,0,1,9.945,2.747c2.2,1.236,4.218,2.738,6.563,3.769a20.8,20.8,0,0,0,10.143,1.516,21.015,21.015,0,0,0,10.39-3.843,7.732,7.732,0,0,1-4.392.279,11.334,11.334,0,0,1-3.9-1.738c-2.346-1.572-4.251-3.645-6.666-5.225a16.885,16.885,0,0,0-4.973-2.216,18.844,18.844,0,0,0-9.526.1,18.62,18.62,0,0,0-5.58,2.476l4.511-4.8,4.476-4.837a24.466,24.466,0,0,1,10.716-.6c2.995.392,5.953,1.178,9.206,1.2a29.034,29.034,0,0,0,12.146-2.783,65.406,65.406,0,0,0,11.365-6.837,15.267,15.267,0,0,1-2.667.869,17.335,17.335,0,0,1-2.705.341,25.117,25.117,0,0,1-5.271-.345c-3.391-.548-6.677-1.586-10.086-2a29.12,29.12,0,0,0-6.407-.081,27.109,27.109,0,0,0-9.955,3.116l.944-1.085,2.029-2.428c.746-.877,1.465-1.775,2-2.453l.9-1.126c4.066-2.324,8.247-2.884,12.4-3.122a44.194,44.194,0,0,0,9.711-.951,22.236,22.236,0,0,0,6.353-2.942,25.241,25.241,0,0,0,2.993-2.482c.473-.459.935-.932,1.371-1.428s.829-1.034,1.21-1.567a28.359,28.359,0,0,0,5.117-14.039A14.723,14.723,0,0,1,411.9,366.508Z" transform="translate(-329.831 -326.954)" fill="#b3e3df"/>
      </g>
      <g id="Group_2981" data-name="Group 2981" transform="translate(0 41.083)">
        <path id="Path_9266" data-name="Path 9266" d="M427.985,259.756c-3.385,0-3.8,5.28-.38,5.28C430.99,265.036,431.4,259.756,427.985,259.756Z" transform="translate(-177.742 -218.374)" fill="#ffdc99"/>
        <path id="Path_9267" data-name="Path 9267" d="M434.464,247.651c-2.962,0-3.324,4.62-.333,4.62C437.094,252.271,437.456,247.651,434.464,247.651Z" transform="translate(-180.273 -213.884)" fill="#ffdc99"/>
        <path id="Path_9268" data-name="Path 9268" d="M417.489,254.49c-2.539,0-2.849,3.96-.285,3.96C419.743,258.45,420.052,254.49,417.489,254.49Z" transform="translate(-174.104 -216.421)" fill="#ffdc99"/>
        <path id="Path_9269" data-name="Path 9269" d="M142.619,208.263h-.352c-3.385,0-3.8,5.28-.38,5.28h.351C145.625,213.543,146.038,208.263,142.619,208.263Z" transform="translate(-71.769 -199.275)" fill="#ffdc99"/>
        <path id="Path_9270" data-name="Path 9270" d="M139.891,193.976c-2.538,0-2.849,3.96-.285,3.96C142.145,197.936,142.455,193.976,139.891,193.976Z" transform="translate(-71.143 -193.976)" fill="#ffdc99"/>
        <path id="Path_9271" data-name="Path 9271" d="M154.16,197.962c-2.962,0-3.324,4.62-.333,4.62C156.79,202.582,157.152,197.962,154.16,197.962Z" transform="translate(-76.308 -195.454)" fill="#ffdc99"/>
        <path id="Path_9272" data-name="Path 9272" d="M66.324,269.083c-3.809,0-4.273,5.941-.428,5.941C69.7,275.024,70.17,269.083,66.324,269.083Z" transform="translate(-43.474 -221.833)" fill="#ffdc99"/>
        <path id="Path_9273" data-name="Path 9273" d="M54.024,265.622c-2.962,0-3.324,4.62-.333,4.62C56.654,270.242,57.015,265.622,54.024,265.622Z" transform="translate(-39.167 -220.55)" fill="#ffdc99"/>
        <path id="Path_9274" data-name="Path 9274" d="M65.917,254.419c-2.539,0-2.849,3.96-.286,3.96C68.17,258.379,68.48,254.419,65.917,254.419Z" transform="translate(-43.705 -216.394)" fill="#ffdc99"/>
        <path id="Path_9275" data-name="Path 9275" d="M461.691,358.772c-2.817,0-3.161,4.394-.317,4.394C464.191,363.166,464.534,358.772,461.691,358.772Z" transform="translate(-190.415 -255.099)" fill="#ffdc99"/>
        <path id="Path_9276" data-name="Path 9276" d="M39.358,388.584c-2.816,0-3.161,4.393-.316,4.393C41.858,392.977,42.2,388.584,39.358,388.584Z" transform="translate(-33.771 -266.157)" fill="#ffdc99"/>
        <path id="Path_9277" data-name="Path 9277" d="M33.46,376.539c-2.012,0-2.257,3.138-.226,3.138C35.246,379.677,35.492,376.539,33.46,376.539Z" transform="translate(-31.826 -261.689)" fill="#ffdc99"/>
        <path id="Path_9278" data-name="Path 9278" d="M454.551,372.192c-2.012,0-2.258,3.138-.226,3.138C456.337,375.33,456.583,372.192,454.551,372.192Z" transform="translate(-188.01 -260.077)" fill="#ffdc99"/>
        <path id="Path_9279" data-name="Path 9279" d="M455.329,346.605c-1.61,0-1.806,2.51-.181,2.51C456.758,349.115,456.954,346.605,455.329,346.605Z" transform="translate(-188.419 -250.587)" fill="#ffdc99"/>
        <path id="Path_9280" data-name="Path 9280" d="M35.355,366.04v.242c0,1.609,2.51,1.806,2.51.181v-.242C37.865,364.611,35.355,364.415,35.355,366.04Z" transform="translate(-33.135 -257.377)" fill="#ffdc99"/>
      </g>
    </g>
    <g id="Group_2990" data-name="Group 2990" transform="translate(77.104 33.428)">
      <g id="Group_2989" data-name="Group 2989">
        <path id="Path_9281" data-name="Path 9281" d="M219.461,244.1c.076,1.557.21,3.12.421,4.7-7.082,4.964-16.384,3.8-24.417.606a117.642,117.642,0,0,0,1.091-12.415,46.882,46.882,0,0,0-.16-5.487c6.98,1.2,17.3,1.78,23.485-1.678A125.185,125.185,0,0,0,219.461,244.1Z" transform="translate(-119.34 -165.924)" fill="#fdb68d"/>
        <path id="Path_9282" data-name="Path 9282" d="M220.01,244.1a36.973,36.973,0,0,1-11.478-.969c-4.256-1.034-8.728-2.494-11.427-6.144a46.879,46.879,0,0,0-.16-5.487c6.98,1.2,17.3,1.78,23.485-1.678A125.185,125.185,0,0,0,220.01,244.1Z" transform="translate(-119.889 -165.924)" fill="#1d1d1b" opacity="0.5" style="mix-blend-mode: overlay;isolation: isolate"/>
        <path id="Path_9283" data-name="Path 9283" d="M174.579,251.437s-3.073,5.629-11.322,5.629a14.048,14.048,0,0,1-11.93-6.9c-1.261-2.362-16.889,3.277-19.036,4.137a108.358,108.358,0,0,0-24.558,13.879C92.609,279.511,79.413,295.345,75.4,314.2c-4.9,23,10.442,34.741,21.809,40.15,5.41.3,10.2-3.344,13.227-7.588-.511,4.088-1.852,8.176-1.663,12.264,3.709,5.658,30.884,45.3,66.172,48.067,38.008,2.985,46.2-132.873,46.2-132.873S208.077,256.74,174.579,251.437Z" transform="translate(-74.458 -173.258)" fill="#6cbbd9"/>
        <g id="Group_2983" data-name="Group 2983" transform="translate(59.665 103.419)">
          <path id="Path_9284" data-name="Path 9284" d="M169.742,312.2h61.816c-.245-2.837-.506-5.672-.716-8.51H169.58C169.662,306.525,169.738,309.362,169.742,312.2Z" transform="translate(-169.404 -296.738)" fill="#1d1d1b" opacity="0.3" style="mix-blend-mode: overlay;isolation: isolate"/>
          <path id="Path_9285" data-name="Path 9285" d="M169.447,327.563h62.625q-.1-2.13-.255-4.255H169.648Q169.592,325.435,169.447,327.563Z" transform="translate(-169.355 -304.016)" fill="#1d1d1b" opacity="0.3" style="mix-blend-mode: overlay;isolation: isolate"/>
          <path id="Path_9286" data-name="Path 9286" d="M169.4,296.9H230.52c-.213-1.418-.423-2.836-.622-4.255H169.3Q169.337,294.771,169.4,296.9Z" transform="translate(-169.301 -292.642)" fill="#1d1d1b" opacity="0.3" style="mix-blend-mode: overlay;isolation: isolate"/>
        </g>
        <path id="Path_9287" data-name="Path 9287" d="M329.986,184.539c5.055,1.837,8.817,6.461,10.337,11.621a26.535,26.535,0,0,1-.747,15.866,55.775,55.775,0,0,1-7.684,14.125c.186,5.174.321,9.474.508,14.648.148,4.142.259,8.478-1.56,12.2-2.409,4.933-7.881,7.828-13.337,8.431s-10.936-.756-16.16-2.443c-6.682-2.157-13.38-5-18.277-10.032s-7.624-12.7-5.175-19.274c2.011-5.4,7.048-9.214,9.233-14.549,2.033-4.964,1.349-10.578,2.153-15.882a26.082,26.082,0,0,1,6.945-14.258,24.163,24.163,0,0,1,16.212-7.184C318.487,177.585,324.295,182.47,329.986,184.539Z" transform="translate(-149.573 -146.629)" fill="#3d6173"/>
        <path id="Path_9288" data-name="Path 9288" d="M320.269,269.318a50.911,50.911,0,0,0-3.388,12.895c-.013.1-.026.185-.032.281-.191,1.556-.306,3.126-.351,4.7-8.294,2.443-17.628,1.027-24.225-4.568,1.646-3.375,3.433-7.172,4.823-10.955.07-.179.134-.364.2-.542.223-.625.44-1.25.638-1.869.357-1.117.67-2.22.925-3.305A34,34,0,0,0,320.269,269.318Z" transform="translate(-155.246 -179.323)" fill="#fdb68d"/>
        <path id="Path_9289" data-name="Path 9289" d="M323.233,269.318a50.912,50.912,0,0,0-3.388,12.895c-.013.1-.026.185-.032.281-1.5-.268-2.979-.587-3.247-.657a31.157,31.157,0,0,1-15.836-10.081,6.861,6.861,0,0,1-.466-.632c.223-.625.44-1.25.638-1.869.357-1.117.67-2.22.925-3.305A34,34,0,0,0,323.233,269.318Z" transform="translate(-158.211 -179.323)" fill="#1d1d1b" opacity="0.5" style="mix-blend-mode: overlay;isolation: isolate"/>
        <path id="Path_9290" data-name="Path 9290" d="M307.142,289.539s24.722,5.684,38.459,27.438,18.073,42.115,17.893,47.659c-.133,4.059-.858,14.817-13.934,25.679-9.041,7.511-20.171,14.028-31.866,15.2-19.6-.055-25.667.049-46.1,0l-4.063-96.246L265.9,293.357s3.795-3.978,18.3-6.6a13.355,13.355,0,0,0,9.323,7.941C300.543,296.217,304.47,292.89,307.142,289.539Z" transform="translate(-145.463 -187.041)" fill="#ffa1ac"/>
        <path id="Path_9291" data-name="Path 9291" d="M160.015,286.31c.988,1.069,1.645,2.406,2.6,3.506,1.9,2.2,4.767,3.241,7.392,4.487s5.32,3.017,6.154,5.8c.807,2.692-.349,5.6,0,8.385.481,3.876,3.687,6.772,5.456,10.254a14.57,14.57,0,0,1-10.965,21.028c-3.422.481-6.9-.265-10.35-.148-5.76.2-11.13,2.754-16.617,4.518-4.849,1.558-9.793,2.783-14.793,1.025-2.759-.97-5.277-3.17-5.773-6.052-.433-2.516.706-5.073.457-7.613-.43-4.388-4.805-7.583-5.347-11.959-.378-3.053,1.2-5.981,2.842-8.581s3.473-5.279,3.687-8.348c.2-2.838-.587-4.627.971-7.2a13.071,13.071,0,0,1,15.46-5.639c-.271-.095,3.51-3.378,3.852-3.593a16.439,16.439,0,0,1,7.769-2.611A9.247,9.247,0,0,1,160.015,286.31Z" transform="translate(-90.67 -185.856)" fill="#3d6173"/>
        <path id="Path_9292" data-name="Path 9292" d="M180.963,382.552c-5.691,4.874-13.89,3.745-21.182.613.038-2,.064-4.122.031-6.285-.013-.849-.031-1.71-.07-2.565-.019-.689-.058-1.378-.1-2.067-.038-.734-.1-1.454-.159-2.175-.134-1.538-.325-3.044-.587-4.479a45.392,45.392,0,0,0,12.632.734,16.888,16.888,0,0,0,7.631-2.4c.019.549.045,1.1.064,1.646.128,3.164.262,6.393.606,9.672.083.829.179,1.659.293,2.494C180.337,379.337,180.612,380.938,180.963,382.552Z" transform="translate(-105.776 -215.664)" fill="#fdb68d"/>
        <path id="Path_9293" data-name="Path 9293" d="M165.621,382.857s16.4,3.159,19.611,13.823,7.565,50.423,5.639,56.107-14.854,9.279-35.621,9.47-30.637-4.012-33.265-8.643-4.873-42.528,3.4-55.489S145.548,383.9,145.548,383.9s.7,5.406,10.709,5.406S165.621,382.857,165.621,382.857Z" transform="translate(-91.511 -222.684)" fill="#ffe8e2"/>
        <g id="Group_2986" data-name="Group 2986" transform="translate(28.924 160.173)">
          <g id="Group_2985" data-name="Group 2985" clip-path="url(#clip-path)">
            <g id="Group_2984" data-name="Group 2984" transform="translate(-1.638 -12.502)">
              <path id="Path_9294" data-name="Path 9294" d="M213.671,459.793q2.71-.561,5.411-1.263-2.065-36.14-5.168-72.155c-.359-4.16-5.793-3.3-5.435.856Q211.605,423.444,213.671,459.793Z" transform="translate(-151.446 -370.649)" fill="#1d1d1b" opacity="0.3" style="mix-blend-mode: overlay;isolation: isolate"/>
              <path id="Path_9295" data-name="Path 9295" d="M193.4,458.986q2.724-.29,5.442-.674-1.75-39.785-4.631-79.453c-.3-4.17-5.737-3.307-5.434.856Q191.662,419.287,193.4,458.986Z" transform="translate(-144.142 -367.86)" fill="#1d1d1b" opacity="0.3" style="mix-blend-mode: overlay;isolation: isolate"/>
              <path id="Path_9296" data-name="Path 9296" d="M174.3,456.207q2.729-.137,5.454-.328-1.546-43.55-4.683-86.95c-.3-4.17-5.736-3.307-5.435.856Q172.76,412.911,174.3,456.207Z" transform="translate(-137.041 -364.176)" fill="#1d1d1b" opacity="0.3" style="mix-blend-mode: overlay;isolation: isolate"/>
              <path id="Path_9297" data-name="Path 9297" d="M155.434,455.454q2.725-.076,5.449-.165-1.066-44.858-3.921-89.573c-.267-4.175-5.7-3.308-5.435.856Q154.365,410.93,155.434,455.454Z" transform="translate(-130.326 -362.984)" fill="#1d1d1b" opacity="0.3" style="mix-blend-mode: overlay;isolation: isolate"/>
              <path id="Path_9298" data-name="Path 9298" d="M130.713,457.348q2.716-.143,5.435-.244-.052-43.955-1.6-87.842c-.148-4.185-5.581-3.307-5.434.856Q130.657,413.69,130.713,457.348Z" transform="translate(-122.016 -364.298)" fill="#1d1d1b" opacity="0.3" style="mix-blend-mode: overlay;isolation: isolate"/>
              <path id="Path_9299" data-name="Path 9299" d="M189.085,397.562q-33.314.529-66.592,2.3c-3.517.188-3.181,5.64.334,5.452q33.322-1.782,66.692-2.3Q189.281,400.289,189.085,397.562Z" transform="translate(-118.642 -375.809)" fill="#1d1d1b" opacity="0.3" style="mix-blend-mode: overlay;isolation: isolate"/>
              <path id="Path_9300" data-name="Path 9300" d="M189.647,418.353q-35.564.025-71.109,1.331c-.068,1.828-.142,3.653-.211,5.471q35.962-1.33,71.953-1.349Q189.942,421.083,189.647,418.353Z" transform="translate(-118.015 -383.52)" fill="#1d1d1b" opacity="0.3" style="mix-blend-mode: overlay;isolation: isolate"/>
              <path id="Path_9301" data-name="Path 9301" d="M190.9,437.5q-36.467-.384-72.925.815-.066,2.733-.1,5.467,36.814-1.218,73.653-.826C191.311,441.137,191.1,439.316,190.9,437.5Z" transform="translate(-117.848 -390.588)" fill="#1d1d1b" opacity="0.3" style="mix-blend-mode: overlay;isolation: isolate"/>
              <path id="Path_9302" data-name="Path 9302" d="M192.444,456.768q-37.3-.968-74.613-.175,0,2.73.041,5.461,37.633-.8,75.272.176c.1,0,.194-.015.291-.021Q192.869,459.507,192.444,456.768Z" transform="translate(-117.831 -397.572)" fill="#1d1d1b" opacity="0.3" style="mix-blend-mode: overlay;isolation: isolate"/>
              <path id="Path_9303" data-name="Path 9303" d="M194.631,476.086q-37.3-.968-74.613-.174,0,2.73.041,5.46,37.633-.8,75.272.176a2.887,2.887,0,0,0,.292-.021Q195.056,478.825,194.631,476.086Z" transform="translate(-118.642 -404.737)" fill="#1d1d1b" opacity="0.3" style="mix-blend-mode: overlay;isolation: isolate"/>
              <path id="Path_9304" data-name="Path 9304" d="M196.817,495.405q-37.3-.968-74.613-.175,0,2.73.042,5.461,37.632-.8,75.272.176c.1,0,.194-.015.291-.021Q197.242,498.144,196.817,495.405Z" transform="translate(-119.453 -411.903)" fill="#1d1d1b" opacity="0.3" style="mix-blend-mode: overlay;isolation: isolate"/>
            </g>
          </g>
        </g>
        <path id="Path_9306" data-name="Path 9306" d="M180.267,376.217a31.972,31.972,0,0,1-5.7,2.048,18.131,18.131,0,0,1-8.454.255,12.208,12.208,0,0,1-5.933-3.235c-.019-.689-.058-1.378-.1-2.067a19.881,19.881,0,0,1,5.966-2.839l13.226-3.732c.127-.038.255-.07.389-.1C179.788,369.709,179.922,372.938,180.267,376.217Z" transform="translate(-106.216 -216.634)" fill="#1d1d1b" opacity="0.5" style="mix-blend-mode: overlay;isolation: isolate"/>
        <path id="Path_9307" data-name="Path 9307" d="M274.177,313.593a18.18,18.18,0,0,1,16.724-.659,23.938,23.938,0,0,1,11.668,12.4,35.342,35.342,0,0,1,2.4,17.075c-.45,5.089-1.8,10.213-4.747,14.387-4.58,6.484-12.68,9.956-20.618,10.059s-15.685-2.847-22.371-7.126c-4.362-2.792-4.827-6.029-5.577-11.153s.176-10.336,1.265-15.4a45.876,45.876,0,0,1,3.159-10.285,17.69,17.69,0,0,1,7.021-7.962C266.236,313.181,271,311.92,274.177,313.593Z" transform="translate(-140.079 -196.113)" fill="#3d6173"/>
        <path id="Path_9308" data-name="Path 9308" d="M297.111,405.483c-5.353,4.1-12.626,1.972-18.98-2.016.179-2.514.357-5.238.433-7.994.02-.625.026-1.244.032-1.87.019-1.48,0-2.954-.07-4.4-.038-.881-.1-1.748-.179-2.6-.013-.185-.032-.364-.052-.542.243.083.491.172.747.255,5.429,1.806,12.983,3.209,17.475.612-.006.485-.019.97-.026,1.454-.057,2.859-.108,5.781-.025,8.76.032,1.423.1,2.865.217,4.319C296.785,402.8,296.926,404.13,297.111,405.483Z" transform="translate(-150.001 -223.875)" fill="#fdb68d"/>
        <path id="Path_9309" data-name="Path 9309" d="M338.218,438.727a4.255,4.255,0,0,0-1.736.032,1.288,1.288,0,0,0-.354,2.438,4.252,4.252,0,0,0,1.407.47l3.939.822a14.215,14.215,0,0,0,4.838.44c.909-.127,2.776-.642,3.195-1.6.576-1.317-1.373-1.419-2.207-1.518Z" transform="translate(-171.238 -243.38)" fill="#fdb68d"/>
        <path id="Path_9310" data-name="Path 9310" d="M281.761,403.258a24.974,24.974,0,0,1,19.06,13.487c6.355,12.527,7.334,42.157,4.431,45.889s-7.495,6.594-31,6.989-32.315-3.963-34.134-8.641-.985-35.735,5.562-45.411,18.141-12.313,18.141-12.313,1.144,6.18,9,6.18S281.761,403.258,281.761,403.258Z" transform="translate(-135.306 -230.251)" fill="#b3e3df"/>
        <path id="Path_9311" data-name="Path 9311" d="M296.7,398.519a23.249,23.249,0,0,1-8.811.664,16.117,16.117,0,0,1-8.186-3.446c-.312-.262-.606-.51-.874-.766.019-1.48,0-2.954-.07-4.4a36.33,36.33,0,0,0,11.426-.007q3.274-.411,6.539-.81C296.668,392.618,296.617,395.54,296.7,398.519Z" transform="translate(-150.234 -225.244)" fill="#1d1d1b" opacity="0.5" style="mix-blend-mode: overlay;isolation: isolate"/>
        <path id="Path_9312" data-name="Path 9312" d="M290.509,199.668c-3.2,2.255-4.459,6.363-5.061,10.229s-.788,7.917-2.626,11.37c-2.29,4.3-6.792,7-9.492,11.051a16.273,16.273,0,0,0,2.718,20.543" transform="translate(-147.3 -154.739)" fill="none" stroke="#3d6173" stroke-miterlimit="10" stroke-width="1"/>
        <path id="Path_9313" data-name="Path 9313" d="M174.328,169.366a49.968,49.968,0,0,1-3.236-15.98c-.035-5.46,1.4-11.059,4.793-15.336a24.177,24.177,0,0,1,11.211-7.525,47.79,47.79,0,0,1,13.46-2.21c5.052-.218,10.291.012,14.857,2.186,7.188,3.423,11.529,11.3,12.4,19.211s-1.271,15.87-4.228,23.262l.186-.9c-3.022,4.455-8.073,7.283-13.287,8.624C198.055,183.891,178.546,181.482,174.328,169.366Z" transform="translate(-110.3 -128.25)" fill="#3d6173"/>
        <path id="Path_9314" data-name="Path 9314" d="M336.966,227.813a56.3,56.3,0,0,1-4.224,7.586,38.285,38.285,0,0,1-5.372,7.094,29.405,29.405,0,0,1-3.924,3.413,23.4,23.4,0,0,1-3.815,2.233,17.565,17.565,0,0,1-7.535,1.7,15.965,15.965,0,0,1-12.026-5.723,13.322,13.322,0,0,1-.951-1.289,17.8,17.8,0,0,1-1.755-3.324,28.255,28.255,0,0,1-1.856-9.149c-.542-10.846,3.056-22.19,10.572-30.082a18.165,18.165,0,0,1,14.572-5.493c7.306.683,13.845,5.876,16.754,12.607C340.3,214.058,339.575,221.261,336.966,227.813Z" transform="translate(-156.426 -152.901)" fill="#fdb68d"/>
        <path id="Path_9315" data-name="Path 9315" d="M303.5,342.257a53.508,53.508,0,0,1-1.611,8.147,36.679,36.679,0,0,1-2.8,8.034c-2.435,4.962-6.316,9.472-11.733,11.18a15.266,15.266,0,0,1-12.62-1.666c-3.963-2.53-6.53-6.782-8.2-11.178-3.688-9.7-3.751-21.084.76-30.47a17.378,17.378,0,0,1,11.643-9.289c6.841-1.531,14.318,1.271,18.948,6.536C302.477,328.767,303.946,335.528,303.5,342.257Z" transform="translate(-144.7 -198.109)" fill="#fdb68d"/>
        <path id="Path_9316" data-name="Path 9316" d="M176.076,315.072a55.851,55.851,0,0,1,.444,8.652,38.248,38.248,0,0,1-.784,8.839c-1.2,5.64-3.979,11.189-9.024,14.3a15.925,15.925,0,0,1-13.191,1.526c-4.653-1.551-8.332-5.2-11.141-9.221-6.2-8.877-9.16-20.375-6.985-31.019a18.133,18.133,0,0,1,9.415-12.36c6.531-3.29,14.808-2.357,20.832,1.79C171.611,301.685,174.817,308.151,176.076,315.072Z" transform="translate(-96.796 -189.652)" fill="#fdb68d"/>
        <path id="Path_9317" data-name="Path 9317" d="M226.341,174.391c-.049,1.392-.108,2.784-.2,4.175-.739,11.328-5.436,24.225-17.41,27.881a20.983,20.983,0,0,1-15.331-1.359c-4.1-2.079-7.372-7.011-8.913-11.238-1.719-4.715-2.19-9.784-2.483-14.794q-.369-6.3-.4-12.622c-.008-1.962-.266-4.218.242-6.1a32.229,32.229,0,0,1,2.325-5.646,21.056,21.056,0,0,1,14.227-11.1c8.308-1.765,17.328,1.729,22.868,8.168,0,.6,1.853,2.411,2.23,3.005a26.546,26.546,0,0,1,1.848,3.452c1.363,3.067,1.371,6.872,1.212,10.157C226.464,170.38,226.413,172.386,226.341,174.391Z" transform="translate(-114.174 -133.772)" fill="#fdb68d"/>
        <path id="Path_9318" data-name="Path 9318" d="M341.493,165.32a13.913,13.913,0,0,1,11.892-4.275,10.72,10.72,0,0,1,7.7,4.3,10.518,10.518,0,0,1,1.438,6.48,11.042,11.042,0,0,1-.908,3.958,10.423,10.423,0,0,1-5.6,5.04,17.03,17.03,0,0,1-7.8,1.03C339.123,181.1,335.8,171.76,341.493,165.32Z" transform="translate(-172.461 -140.376)" fill="#3d6173"/>
        <path id="Path_9319" data-name="Path 9319" d="M366.469,191.629a26.192,26.192,0,0,1,8.546,19.128c.023,8.056-3.815,13.086-8.357,19.15-4.037,5.389,1.445,13.586,1.873,19.6.28,3.921-.58,8.119-3.282,10.974" transform="translate(-182.288 -151.757)" fill="none" stroke="#3d6173" stroke-miterlimit="10" stroke-width="1"/>
        <path id="Path_9320" data-name="Path 9320" d="M359.129,251.671a4.733,4.733,0,0,1,.117,6.1,7.735,7.735,0,0,1-5.9,2.645,22.909,22.909,0,0,1-6.569-1.081c.278.07,2.542-3.459,2.828-3.849.887-1.208,1.785-3.033,2.937-3.983A5.516,5.516,0,0,1,359.129,251.671Z" transform="translate(-175.461 -173.591)" fill="#fdb68d"/>
        <path id="Path_9321" data-name="Path 9321" d="M290.485,223.26a4.733,4.733,0,0,0-4.292,4.337,7.735,7.735,0,0,0,2.451,5.986,22.881,22.881,0,0,0,5.5,3.748c-.249-.142.545-4.258.606-4.738.19-1.487.8-3.427.62-4.91A5.516,5.516,0,0,0,290.485,223.26Z" transform="translate(-152.981 -163.489)" fill="#fdb68d"/>
        <path id="Path_9322" data-name="Path 9322" d="M203.755,332.755a4.148,4.148,0,0,1,2.857,4.52,6.775,6.775,0,0,1-3.224,4.663,20.067,20.067,0,0,1-5.415,2.173c.24-.074.335-3.748.372-4.17a19.554,19.554,0,0,1,.393-4.32A4.835,4.835,0,0,1,203.755,332.755Z" transform="translate(-120.271 -204.074)" fill="#fdb68d"/>
        <path id="Path_9323" data-name="Path 9323" d="M129.97,347.561a4.148,4.148,0,0,0-1.248,5.2,6.777,6.777,0,0,0,4.555,3.374,20.066,20.066,0,0,0,5.826.311c-.251.007-1.525-3.44-1.7-3.827a19.626,19.626,0,0,0-1.765-3.962A4.834,4.834,0,0,0,129.97,347.561Z" transform="translate(-94.43 -209.408)" fill="#fdb68d"/>
        <path id="Path_9324" data-name="Path 9324" d="M326.451,362.1a4.148,4.148,0,0,1,2.021,4.951,6.777,6.777,0,0,1-3.991,4.026,20.076,20.076,0,0,1-5.712,1.191c.249-.031.986-3.631,1.1-4.041a19.583,19.583,0,0,1,1.144-4.184A4.835,4.835,0,0,1,326.451,362.1Z" transform="translate(-165.074 -214.894)" fill="#fdb68d"/>
        <path id="Path_9325" data-name="Path 9325" d="M258.06,362.4a4.148,4.148,0,0,0-2.14,4.9,6.78,6.78,0,0,0,3.893,4.121,20.09,20.09,0,0,0,5.682,1.326c-.248-.036-.9-3.653-1-4.065a19.578,19.578,0,0,0-1.044-4.21A4.834,4.834,0,0,0,258.06,362.4Z" transform="translate(-141.707 -215.016)" fill="#fdb68d"/>
        <path id="Path_9326" data-name="Path 9326" d="M256.653,189.725a4.732,4.732,0,0,1,2.292,5.654,7.732,7.732,0,0,1-4.565,4.582,22.913,22.913,0,0,1-6.521,1.342c.284-.035,1.136-4.14,1.263-4.607.4-1.446.581-3.471,1.318-4.77A5.516,5.516,0,0,1,256.653,189.725Z" transform="translate(-138.773 -150.944)" fill="#fdb68d"/>
        <path id="Path_9327" data-name="Path 9327" d="M171.021,189.413A4.733,4.733,0,0,0,168.565,195,7.735,7.735,0,0,0,173,199.712a22.929,22.929,0,0,0,6.478,1.531c-.283-.043-1.015-4.172-1.129-4.641-.354-1.456-.48-3.486-1.178-4.807A5.516,5.516,0,0,0,171.021,189.413Z" transform="translate(-109.3 -150.844)" fill="#fdb68d"/>
        <path id="Path_9328" data-name="Path 9328" d="M344.246,212.189a19.194,19.194,0,0,1,.014,4.76c-.091.756-.3,1.495-.391,2.248a11.336,11.336,0,0,1-.1,1.364c-.639,2.574-2.687,5.193-4.492,7.06a1.737,1.737,0,0,1-1.371.71,1.656,1.656,0,0,1-1.065-.936c-1.87-3.231-1.061-6.762-1.221-10.293A16.4,16.4,0,0,0,318.3,201.474a32.547,32.547,0,0,1-18.382,6.724,57.852,57.852,0,0,1,4.077-8.97,16.428,16.428,0,0,1,6.524-6.144,18.021,18.021,0,0,1,8.63-1.4A29.005,29.005,0,0,1,335.5,197.43,22.723,22.723,0,0,1,344.246,212.189Z" transform="translate(-158.082 -151.765)" fill="#3d6173"/>
        <path id="Path_9329" data-name="Path 9329" d="M227.618,162.833a8.752,8.752,0,0,1-2.161,2.608,5.222,5.222,0,0,1-3.139,1.16,5.63,5.63,0,0,1-2.922-.915,8.848,8.848,0,0,1-2.857-3.551c-1.241,3.79-5.535,5.941-9.52,5.8s-7.676-2.1-10.971-4.351a58.626,58.626,0,0,1-8.741-6.731,22.388,22.388,0,0,1-4.127,8.743,6.079,6.079,0,0,1-2.468,2.1,3.53,3.53,0,0,1-2.5,0,22.4,22.4,0,0,1,12.525-28.022c7.65-3.2,16.808-1.823,23.746,2.72S225.328,154.863,227.618,162.833Z" transform="translate(-112.489 -131.844)" fill="#3d6173"/>
        <path id="Path_9330" data-name="Path 9330" d="M260,342.983a28,28,0,0,0,14.038-17.608c2.834,5.4,7.381,10.472,12.849,13.168a29.3,29.3,0,0,0,17.806,2.572c.969-8.376-3.805-18.161-11.073-22.435a22.443,22.443,0,0,0-23.89,1.091C262.885,324.69,258.274,334.73,260,342.983Z" transform="translate(-143.142 -197.796)" fill="#3d6173"/>
        <path id="Path_9331" data-name="Path 9331" d="M176.331,314.582a8.685,8.685,0,0,1-.219,2.33,1.348,1.348,0,0,1-.656,1.029c-.483.189-.986-.189-1.367-.542-2.175-2.013-5.014-5.965-8.218-6.1-2.071-.089-3.806,1.438-5.41,2.751s-3.692,2.562-5.636,1.842c-1.831-.678-2.635-2.763-3.308-4.6s-1.712-3.886-3.631-4.246c-1.34-.252-1.386,1.12-1.984,2.345a14.692,14.692,0,0,0-.961,3.96,11.625,11.625,0,0,1-3.394,6.48c-1.909,1.88-3,4.351-5.231,5.982a2.428,2.428,0,0,1-2.409.366,3.186,3.186,0,0,1-1.337-1.553c-1.549-3.1-1.034-6.12-1.412-9.407a21.124,21.124,0,0,1,2.505-13.041,22.221,22.221,0,0,1,34.926-4.475,25.833,25.833,0,0,1,5.439,9.077C175.018,309.331,176.231,311.9,176.331,314.582Z" transform="translate(-95.43 -188.68)" fill="#3d6173"/>
        <path id="Path_9332" data-name="Path 9332" d="M378.347,317.979A18.257,18.257,0,0,1,391.8,328.76a17.823,17.823,0,0,1,.851,9.687,18.035,18.035,0,0,1-1.544,4.659c-.575,1.166-1.737,2.572-1.865.377a19.034,19.034,0,0,1,.92-7.033c-1.18,2.4-2.372,4.846-3.552,7.243-.306.622-.864,1.358-1.519,1.129-.61-.213-.649-1.051-.56-1.69a42.639,42.639,0,0,1,2.8-10.337c-1.234,2.65-2.628,5.593-3.862,8.243a3.259,3.259,0,0,1-.681,1.071,1.111,1.111,0,0,1-1.176.262c-.617-.288-.628-1.149-.532-1.824a56.451,56.451,0,0,1,3.18-12.259c-1.459,2.474-2.915,5.078-4.375,7.552a3.209,3.209,0,0,1-.806,1.02,1.1,1.1,0,0,1-1.224.105,1.577,1.577,0,0,1-.413-1.517c.313-2.991,1.336-5.859,1.912-8.811A12.782,12.782,0,0,0,378.347,317.979Z" transform="translate(-186.826 -198.621)" fill="#fdb68d"/>
        <path id="Path_9333" data-name="Path 9333" d="M343.618,441.051a149.348,149.348,0,0,1-16.6,8.6c-.711.332-3.949,1.428-2.259,2.129,1.261.523,3.7-.065,4.979-.344a16.887,16.887,0,0,0,4.853-1.871c-1.8.817-3.573,1.692-5.349,2.559-.889.434-1.784.856-2.672,1.291-.708.347-1.5.366-2.169.72a1.036,1.036,0,0,0-.561,1.207c.232.581,1.021.64,1.645.584a33.629,33.629,0,0,0,10.133-2.538c-2.92,1.27-6.429,2.9-9.349,4.173-.377.164-.818.423-.8.835.02.512.692.68,1.2.684a23.555,23.555,0,0,0,9.943-2.121c-1.865,1.019-4.232,2.263-6.1,3.282-.494.27-1.071.757-.848,1.274.2.469.864.455,1.366.359a79.534,79.534,0,0,0,14.631-4.309,10.108,10.108,0,0,0,4.276-2.7,7.068,7.068,0,0,0,1.252-5.415,17.565,17.565,0,0,0-1.929-5.354,7.8,7.8,0,0,0-2.063-2.84A3.45,3.45,0,0,0,343.618,441.051Z" transform="translate(-166.935 -244.119)" fill="#fdb68d"/>
        <path id="Path_9334" data-name="Path 9334" d="M103.754,403.606a34.527,34.527,0,0,1,37.208-12.519,2.742,2.742,0,0,1,1.2.579.991.991,0,0,1,.215,1.217,1.48,1.48,0,0,1-1.209.438l-8.04.34a13.631,13.631,0,0,1,.6,9.624c-.123.421-.454.934-.864.779a.842.842,0,0,1-.407-.575l-2.891-8.66a33.774,33.774,0,0,1,1.339,7.7,13.233,13.233,0,0,1-.522,4.341c-.251.813-1.368,2.644-2.18,1.212a7.019,7.019,0,0,1-.255-2.712,29.261,29.261,0,0,0-.429-4.58q-.514-2.42-1.206-4.8c.746,4.27.41,9.83-1.622,13.725-.174.333-.489.664-.861.61a.738.738,0,0,1-.529-.442,2.175,2.175,0,0,1-.152-.7c-.257-2.478-.391-4.977-.616-7.461-.084-.932-.44-2.057-1.454-2.34s-1.434.757-1.879,1.529c-1.007,1.747-1.742,3.722-3.363,5.021-2.279,1.826-5.561,1.738-8.38.973a6.987,6.987,0,0,1-2.38-1.035A3.239,3.239,0,0,1,103.754,403.606Z" transform="translate(-85.324 -225.242)" fill="#fdb68d"/>
        <path id="Path_9335" data-name="Path 9335" d="M338.4,172.516a8.757,8.757,0,0,1,2.148-8.913,8.251,8.251,0,0,1,8.975-1.518,7.8,7.8,0,0,1,4.324,7.93c-.471,3.227-2.962,5.731-5.344,7.959" transform="translate(-172.197 -140.535)" fill="none" stroke="#3d6173" stroke-miterlimit="10" stroke-width="1"/>
        <path id="Path_9336" data-name="Path 9336" d="M346.831,170.116a10,10,0,1,1,10.7,13.249" transform="translate(-175.482 -141.313)" fill="none" stroke="#3d6173" stroke-miterlimit="10" stroke-width="1"/>
        <path id="Path_9337" data-name="Path 9337" d="M191.818,131.393a15.871,15.871,0,0,0-14.745,3.815,21.786,21.786,0,0,0-6.587,14.093,35.2,35.2,0,0,0,2.5,15.58" transform="translate(-110.032 -129.219)" fill="none" stroke="#3d6173" stroke-miterlimit="10" stroke-width="1"/>
        <path id="Path_9338" data-name="Path 9338" d="M239.334,173.959a19.185,19.185,0,0,0,2.1,4.249,7.648,7.648,0,0,0,3.656,2.916,4.824,4.824,0,0,0,4.511-.645" transform="translate(-135.611 -145.204)" fill="none" stroke="#3d6173" stroke-miterlimit="10" stroke-width="1"/>
        <path id="Path_9339" data-name="Path 9339" d="M206.437,129.994a32.693,32.693,0,0,1,20.15,1.694,26.955,26.955,0,0,1,14.163,14.2,22.968,22.968,0,0,1-1.123,19.83" transform="translate(-123.409 -128.582)" fill="none" stroke="#3d6173" stroke-miterlimit="10" stroke-width="1"/>
        <path id="Path_9340" data-name="Path 9340" d="M139.315,292.6a10.256,10.256,0,0,0-14.676,4.5c-1.223,2.684-1.239,5.758-2.143,8.566-1.154,3.583-3.673,6.51-5.007,10.01a14.489,14.489,0,0,0,.8,10.941c1.331,2.832,3.282,4.865,3.481,8.12a26.454,26.454,0,0,0,.492,5.632c.516,1.818,1.908,3.566,3.788,3.756" transform="translate(-90.145 -188.655)" fill="none" stroke="#3d6173" stroke-miterlimit="10" stroke-width="1"/>
        <path id="Path_9341" data-name="Path 9341" d="M209.586,311.839c-.632,3.339.905,6.7,2.769,9.545s4.124,5.5,5.225,8.713a13.848,13.848,0,0,1-5.79,15.86" transform="translate(-124.524 -196.344)" fill="none" stroke="#3d6173" stroke-miterlimit="10" stroke-width="1"/>
        <path id="Path_9342" data-name="Path 9342" d="M155.685,316.276a4.32,4.32,0,0,1,3.161,2.35,39.01,39.01,0,0,1,1.582,3.778,5.491,5.491,0,0,0,2.639,3.006,4.123,4.123,0,0,0,3.437-.219,6.284,6.284,0,0,0,2.479-2.484" transform="translate(-104.585 -197.989)" fill="none" stroke="#3d6173" stroke-miterlimit="10" stroke-width="1"/>
        <path id="Path_9343" data-name="Path 9343" d="M281.855,328.792a17.648,17.648,0,0,0,22.039,14.84" transform="translate(-151.382 -202.632)" fill="none" stroke="#3d6173" stroke-miterlimit="10" stroke-width="1"/>
        <path id="Path_9344" data-name="Path 9344" d="M288.278,313.866A22.651,22.651,0,0,1,317.394,343.7" transform="translate(-153.764 -196.553)" fill="none" stroke="#3d6173" stroke-miterlimit="10" stroke-width="1"/>
        <path id="Path_9345" data-name="Path 9345" d="M253.943,335.842c-2.175,5.553-4.381,11.256-4.474,17.219s2.374,12.339,7.572,15.264" transform="translate(-139.369 -205.246)" fill="none" stroke="#3d6173" stroke-miterlimit="10" stroke-width="1"/>
        <path id="Path_9346" data-name="Path 9346" d="M333.161,203.481a13.346,13.346,0,0,1,17.028,10.954c.364,2.618-.055,5.274-.089,7.917s.4,5.463,2.145,7.445" transform="translate(-170.412 -155.953)" fill="none" stroke="#577987" stroke-miterlimit="10" stroke-width="1"/>
        <path id="Path_9347" data-name="Path 9347" d="M337,199.808a13.545,13.545,0,0,1,17.418,14.32c-.213,2.1-.912,4.123-1.268,6.2a8.781,8.781,0,0,0,.8,6.144" transform="translate(-171.836 -154.582)" fill="none" stroke="#577987" stroke-miterlimit="10" stroke-width="1"/>
        <path id="Path_9348" data-name="Path 9348" d="M316.815,202.086a20.477,20.477,0,0,1-15.726,5.992" transform="translate(-158.516 -155.636)" fill="none" stroke="#577987" stroke-miterlimit="10" stroke-width="1"/>
        <path id="Path_9349" data-name="Path 9349" d="M361.23,163.889a8.054,8.054,0,0,1,3.213,14.48" transform="translate(-180.823 -141.469)" fill="none" stroke="#577987" stroke-miterlimit="10" stroke-width="1"/>
        <path id="Path_9350" data-name="Path 9350" d="M356.929,167.855a9.515,9.515,0,0,0-6.455.567,5.729,5.729,0,0,0-3.208,5.346" transform="translate(-175.636 -142.827)" fill="none" stroke="#577987" stroke-miterlimit="10" stroke-width="1"/>
        <path id="Path_9351" data-name="Path 9351" d="M359.288,170.363a4.754,4.754,0,0,0-2.082,6.781" transform="translate(-179.077 -143.87)" fill="none" stroke="#577987" stroke-miterlimit="10" stroke-width="1"/>
        <path id="Path_9352" data-name="Path 9352" d="M288.445,249.121c-1.834,2.793-3.7,5.645-4.576,8.868s-.635,6.936,1.454,9.543" transform="translate(-151.951 -173.081)" fill="none" stroke="#577987" stroke-miterlimit="10" stroke-width="1"/>
        <path id="Path_9353" data-name="Path 9353" d="M291.765,258.828a12.231,12.231,0,0,0-1.112,9.86" transform="translate(-154.435 -176.682)" fill="none" stroke="#577987" stroke-miterlimit="10" stroke-width="1"/>
        <path id="Path_9354" data-name="Path 9354" d="M357.062,270a34.442,34.442,0,0,0,.226,5.725,7.368,7.368,0,0,1-1.5,5.384" transform="translate(-178.805 -180.825)" fill="none" stroke="#577987" stroke-miterlimit="10" stroke-width="1"/>
        <path id="Path_9355" data-name="Path 9355" d="M196.21,154.319a52.5,52.5,0,0,0,7.727,7.674,18.5,18.5,0,0,0,9.979,4,11.33,11.33,0,0,0,9.624-4.141" transform="translate(-119.616 -137.919)" fill="none" stroke="#577987" stroke-miterlimit="10" stroke-width="1"/>
        <path id="Path_9356" data-name="Path 9356" d="M200.419,152.2c4.023,2.751,8.436,5.254,13.29,5.7s10.229-1.663,12.314-6.069" transform="translate(-121.177 -136.997)" fill="none" stroke="#577987" stroke-miterlimit="10" stroke-width="1"/>
        <path id="Path_9357" data-name="Path 9357" d="M185.381,158.9a18.271,18.271,0,0,1-7.619,13.809" transform="translate(-112.774 -139.617)" fill="none" stroke="#577987" stroke-miterlimit="10" stroke-width="1"/>
        <path id="Path_9358" data-name="Path 9358" d="M244.835,139.084a19.618,19.618,0,0,1,6.769,20.143" transform="translate(-137.651 -132.268)" fill="none" stroke="#577987" stroke-miterlimit="10" stroke-width="1"/>
        <path id="Path_9359" data-name="Path 9359" d="M155.618,308.561a7.707,7.707,0,0,1,6.606,4.8c.6,1.541.962,3.575,2.562,3.989,1.19.308,2.331-.527,3.4-1.129a10.042,10.042,0,0,1,14.214,4.933" transform="translate(-104.561 -195.128)" fill="none" stroke="#577987" stroke-miterlimit="10" stroke-width="1"/>
        <path id="Path_9360" data-name="Path 9360" d="M144.54,311.283a19.369,19.369,0,0,1-9.508,18" transform="translate(-96.925 -196.137)" fill="none" stroke="#577987" stroke-miterlimit="10" stroke-width="1"/>
        <path id="Path_9361" data-name="Path 9361" d="M164.16,291.309c.305-1.923,2.384-3.191,4.329-3.135a8.622,8.622,0,0,1,5.191,2.413c1.472,1.275,2.749,2.773,4.311,3.936a34.833,34.833,0,0,0,5.364,2.945,14.588,14.588,0,0,1,4.933,3.558,6.129,6.129,0,0,1,1.312,5.717" transform="translate(-107.729 -187.566)" fill="none" stroke="#577987" stroke-miterlimit="10" stroke-width="1"/>
        <path id="Path_9362" data-name="Path 9362" d="M133.868,299.806c-2.35.579-3.512,3.259-3.775,5.664s0,4.943-.99,7.151a14.247,14.247,0,0,1-3.269,4.072,11.673,11.673,0,0,0-3.091,4.191,4.24,4.24,0,0,0,1.1,4.777" transform="translate(-92.261 -191.881)" fill="none" stroke="#577987" stroke-miterlimit="10" stroke-width="1"/>
        <path id="Path_9363" data-name="Path 9363" d="M212.346,343.174a10.944,10.944,0,0,1-4.962,13.541" transform="translate(-123.761 -207.966)" fill="none" stroke="#577987" stroke-miterlimit="10" stroke-width="1"/>
        <path id="Path_9364" data-name="Path 9364" d="M286.457,328.586a28.927,28.927,0,0,0,21.195,14.328" transform="translate(-153.089 -202.555)" fill="none" stroke="#577987" stroke-miterlimit="10" stroke-width="1"/>
        <path id="Path_9365" data-name="Path 9365" d="M290.681,327.432a31.466,31.466,0,0,0,20.437,6.982" transform="translate(-154.656 -202.127)" fill="none" stroke="#577987" stroke-miterlimit="10" stroke-width="1"/>
        <path id="Path_9366" data-name="Path 9366" d="M271.543,327.93a20.627,20.627,0,0,1-11.763,14.886" transform="translate(-143.195 -202.312)" fill="none" stroke="#577987" stroke-miterlimit="10" stroke-width="1"/>
        <path id="Path_9367" data-name="Path 9367" d="M273.24,316.538a15.164,15.164,0,0,0-13.128,14.752" transform="translate(-143.318 -198.087)" fill="none" stroke="#577987" stroke-miterlimit="10" stroke-width="1"/>
        <ellipse id="Ellipse_1168" data-name="Ellipse 1168" cx="2.91" cy="4.884" rx="2.91" ry="4.884" transform="translate(163.311 84.344) rotate(-77.905)" fill="#1d1d1b" opacity="0.3" style="mix-blend-mode: overlay;isolation: isolate"/>
        <ellipse id="Ellipse_1169" data-name="Ellipse 1169" cx="2.91" cy="4.884" rx="2.91" ry="4.884" transform="matrix(0.659, -0.752, 0.752, 0.659, 140.686, 71.578)" fill="#1d1d1b" opacity="0.3" style="mix-blend-mode: overlay;isolation: isolate"/>
        <ellipse id="Ellipse_1170" data-name="Ellipse 1170" cx="4.884" cy="2.91" rx="4.884" ry="2.91" transform="matrix(0.98, -0.198, 0.198, 0.98, 98.92, 48.648)" fill="#1d1d1b" opacity="0.3" style="mix-blend-mode: overlay;isolation: isolate"/>
        <ellipse id="Ellipse_1171" data-name="Ellipse 1171" cx="2.91" cy="4.884" rx="2.91" ry="4.884" transform="matrix(0.198, -0.98, 0.98, 0.198, 69.738, 52.424)" fill="#1d1d1b" opacity="0.3" style="mix-blend-mode: overlay;isolation: isolate"/>
        <ellipse id="Ellipse_1172" data-name="Ellipse 1172" cx="4.884" cy="2.91" rx="4.884" ry="2.91" transform="translate(68.821 138.927) rotate(-30)" fill="#1d1d1b" opacity="0.3" style="mix-blend-mode: overlay;isolation: isolate"/>
        <ellipse id="Ellipse_1173" data-name="Ellipse 1173" cx="4.884" cy="2.91" rx="4.884" ry="2.91" transform="translate(44.548 142.09)" fill="#1d1d1b" opacity="0.3" style="mix-blend-mode: overlay;isolation: isolate"/>
        <ellipse id="Ellipse_1174" data-name="Ellipse 1174" cx="4.884" cy="2.91" rx="4.884" ry="2.91" transform="translate(122.07 152.447)" fill="#1d1d1b" opacity="0.3" style="mix-blend-mode: overlay;isolation: isolate"/>
        <ellipse id="Ellipse_1175" data-name="Ellipse 1175" cx="4.884" cy="2.91" rx="4.884" ry="2.91" transform="translate(144.765 152.871)" fill="#1d1d1b" opacity="0.3" style="mix-blend-mode: overlay;isolation: isolate"/>
        <path id="Path_9368" data-name="Path 9368" d="M234.278,184.7c.056,1.4,5.78,2.143,5.933.474S234.221,183.306,234.278,184.7Z" transform="translate(-133.736 -148.845)" fill="#32586b"/>
        <path id="Path_9369" data-name="Path 9369" d="M199.853,183.984c-.056,1.4-5.78,2.143-5.933.474S199.91,182.588,199.853,183.984Z" transform="translate(-118.766 -148.579)" fill="#32586b"/>
        <path id="Path_9370" data-name="Path 9370" d="M233.585,193.138a2.911,2.911,0,0,1,.5-2.04.864.864,0,0,1,.963-.282,1.209,1.209,0,0,1,.53,1.126,6.019,6.019,0,0,1-.145,1.541,1.968,1.968,0,0,1-.349.821.846.846,0,0,1-.79.33.879.879,0,0,1-.625-.735A6.609,6.609,0,0,1,233.585,193.138Z" transform="translate(-133.476 -151.435)" fill="#32586b"/>
        <path id="Path_9371" data-name="Path 9371" d="M199.647,193.138a2.911,2.911,0,0,1,.505-2.04.862.862,0,0,1,.963-.282,1.209,1.209,0,0,1,.53,1.126,6.018,6.018,0,0,1-.145,1.541,1.968,1.968,0,0,1-.349.821.846.846,0,0,1-.79.33.879.879,0,0,1-.625-.735A6.609,6.609,0,0,1,199.647,193.138Z" transform="translate(-120.888 -151.435)" fill="#32586b"/>
        <path id="Path_9372" data-name="Path 9372" d="M306.187,355.921c.057,1.4,5.78,2.143,5.934.474S306.13,354.525,306.187,355.921Z" transform="translate(-160.407 -212.35)" fill="#32586b"/>
        <path id="Path_9373" data-name="Path 9373" d="M280.891,355.2c-.057,1.4-5.78,2.143-5.934.474S280.947,353.807,280.891,355.2Z" transform="translate(-148.823 -212.084)" fill="#32586b"/>
        <path id="Path_9374" data-name="Path 9374" d="M306.46,364.357a2.911,2.911,0,0,1,.5-2.04.863.863,0,0,1,.963-.282,1.209,1.209,0,0,1,.531,1.126,6.044,6.044,0,0,1-.146,1.541,1.952,1.952,0,0,1-.349.821.846.846,0,0,1-.79.33.879.879,0,0,1-.624-.735A6.353,6.353,0,0,1,306.46,364.357Z" transform="translate(-160.505 -214.941)" fill="#32586b"/>
        <path id="Path_9375" data-name="Path 9375" d="M281.649,364.357a2.911,2.911,0,0,1,.505-2.04.862.862,0,0,1,.963-.282,1.209,1.209,0,0,1,.53,1.126,6.015,6.015,0,0,1-.145,1.541,1.961,1.961,0,0,1-.349.821.846.846,0,0,1-.79.33.88.88,0,0,1-.625-.735A6.633,6.633,0,0,1,281.649,364.357Z" transform="translate(-151.303 -214.941)" fill="#32586b"/>
        <path id="Path_9376" data-name="Path 9376" d="M180.889,327.241c.49,1.308,6.159.228,5.784-1.4S180.4,325.933,180.889,327.241Z" transform="translate(-113.923 -201.289)" fill="#32586b"/>
        <path id="Path_9377" data-name="Path 9377" d="M149.054,334.152c.382,1.344-4.82,3.843-5.488,2.306S148.672,332.808,149.054,334.152Z" transform="translate(-100.071 -204.461)" fill="#32586b"/>
        <path id="Path_9378" data-name="Path 9378" d="M184.5,337.461a2.911,2.911,0,0,1-.158-2.1.864.864,0,0,1,.826-.569c.436.044.7.493.856.9a6.037,6.037,0,0,1,.343,1.51,1.963,1.963,0,0,1-.075.889.845.845,0,0,1-.647.56.879.879,0,0,1-.823-.5A6.49,6.49,0,0,1,184.5,337.461Z" transform="translate(-115.166 -204.857)" fill="#32586b"/>
        <path id="Path_9379" data-name="Path 9379" d="M153.281,345.028a2.915,2.915,0,0,1-.158-2.1.863.863,0,0,1,.826-.569c.436.044.7.493.856.9a6.037,6.037,0,0,1,.343,1.51,1.96,1.96,0,0,1-.074.888.848.848,0,0,1-.647.561.881.881,0,0,1-.824-.5A6.688,6.688,0,0,1,153.281,345.028Z" transform="translate(-103.585 -207.664)" fill="#32586b"/>
        <path id="Path_9380" data-name="Path 9380" d="M345.345,236.219c-.814,1.136,3.238,5.245,4.385,4.025S346.159,235.084,345.345,236.219Z" transform="translate(-174.891 -168.221)" fill="#32586b"/>
        <path id="Path_9381" data-name="Path 9381" d="M316.716,225.1c-.35,1.353-6.1.876-5.9-.787S317.065,223.751,316.716,225.1Z" transform="translate(-162.122 -163.57)" fill="#32586b"/>
        <path id="Path_9382" data-name="Path 9382" d="M339.672,244.053a2.91,2.91,0,0,1,1.2-1.725.863.863,0,0,1,1,.081,1.207,1.207,0,0,1,.093,1.241,6.03,6.03,0,0,1-.686,1.388,1.963,1.963,0,0,1-.619.642.846.846,0,0,1-.856.026.881.881,0,0,1-.321-.91A6.529,6.529,0,0,1,339.672,244.053Z" transform="translate(-172.75 -170.517)" fill="#32586b"/>
        <path id="Path_9383" data-name="Path 9383" d="M313.157,232.919a2.915,2.915,0,0,1,1.2-1.725.864.864,0,0,1,1,.081,1.21,1.21,0,0,1,.093,1.241,6.055,6.055,0,0,1-.686,1.388,1.97,1.97,0,0,1-.619.642.847.847,0,0,1-.856.026.882.882,0,0,1-.32-.91A6.521,6.521,0,0,1,313.157,232.919Z" transform="translate(-162.915 -166.388)" fill="#32586b"/>
        <path id="Path_9384" data-name="Path 9384" d="M327.485,235.939l-2.621,10.273a3.925,3.925,0,0,1-.709,1.655,2.042,2.042,0,0,1-3.084-.187" transform="translate(-165.928 -168.192)" fill="none" stroke="#de8f62" stroke-linejoin="round" stroke-width="1.028"/>
        <path id="Path_9385" data-name="Path 9385" d="M357.865,257.145a4.043,4.043,0,0,1,4.86-.785" transform="translate(-179.574 -175.586)" fill="none" stroke="#de8f62" stroke-linejoin="round" stroke-width="1.028"/>
        <path id="Path_9386" data-name="Path 9386" d="M360.772,256.333l1.41,2.713" transform="translate(-180.653 -175.756)" fill="none" stroke="#de8f62" stroke-linejoin="round" stroke-width="1.028"/>
        <path id="Path_9387" data-name="Path 9387" d="M294.943,230.595a3.677,3.677,0,0,0-4.176-2.6" transform="translate(-154.688 -165.224)" fill="none" stroke="#de8f62" stroke-linejoin="round" stroke-width="1.028"/>
        <path id="Path_9388" data-name="Path 9388" d="M293.331,229.058l-3.169,1.824" transform="translate(-154.463 -165.64)" fill="none" stroke="#de8f62" stroke-linejoin="round" stroke-width="1.028"/>
        <path id="Path_9389" data-name="Path 9389" d="M309.937,252.9a7.856,7.856,0,0,0,4.232,8.149" transform="translate(-161.768 -174.483)" fill="none" stroke="#de8f62" stroke-linejoin="round" stroke-width="1.028"/>
        <path id="Path_9390" data-name="Path 9390" d="M253.941,195.975a3.867,3.867,0,0,1,5.643-1.3" transform="translate(-141.029 -152.621)" fill="none" stroke="#de8f62" stroke-linejoin="round" stroke-width="1.028"/>
        <path id="Path_9391" data-name="Path 9391" d="M257.423,194.092a6.206,6.206,0,0,1,1.407,3.21" transform="translate(-142.32 -152.671)" fill="none" stroke="#de8f62" stroke-linejoin="round" stroke-width="1.028"/>
        <path id="Path_9392" data-name="Path 9392" d="M176.767,195.144a3.854,3.854,0,0,0-5.975.187" transform="translate(-110.189 -152.568)" fill="none" stroke="#de8f62" stroke-linejoin="round" stroke-width="1.028"/>
        <path id="Path_9393" data-name="Path 9393" d="M175.49,194.091a7.774,7.774,0,0,0-1.342,3.589" transform="translate(-111.433 -152.671)" fill="none" stroke="#de8f62" stroke-linejoin="round" stroke-width="1.028"/>
        <path id="Path_9394" data-name="Path 9394" d="M218.421,188.921,220,200.932a3.271,3.271,0,0,1-.4,2.609c-.782.894-2.2.667-3.351.366" transform="translate(-127.049 -150.753)" fill="none" stroke="#de8f62" stroke-linejoin="round" stroke-width="1.028"/>
        <path id="Path_9395" data-name="Path 9395" d="M200.066,215.74a9.421,9.421,0,0,0,7.708,8.541" transform="translate(-121.046 -160.7)" fill="none" stroke="#de8f62" stroke-linejoin="round" stroke-width="1.028"/>
        <path id="Path_9396" data-name="Path 9396" d="M202.9,339.391a3.86,3.86,0,0,1,3.962-1.68" transform="translate(-122.096 -205.912)" fill="none" stroke="#de8f62" stroke-linejoin="round" stroke-width="1.028"/>
        <path id="Path_9397" data-name="Path 9397" d="M205.332,338.353l1.5,2.089" transform="translate(-123 -206.178)" fill="none" stroke="#de8f62" stroke-linejoin="round" stroke-width="1.028"/>
        <path id="Path_9398" data-name="Path 9398" d="M135.09,352.446a3.383,3.383,0,0,0-4.042-.122" transform="translate(-95.447 -211.133)" fill="none" stroke="#de8f62" stroke-linejoin="round" stroke-width="1.028"/>
        <path id="Path_9399" data-name="Path 9399" d="M133.692,351.79l-1.505,2.474" transform="translate(-95.87 -211.162)" fill="none" stroke="#de8f62" stroke-linejoin="round" stroke-width="1.028"/>
        <path id="Path_9400" data-name="Path 9400" d="M171.637,339.07a11.282,11.282,0,0,0,2.992,6.687c.567.6,1.251,1.266,1.185,2.091a1.786,1.786,0,0,1-1.05,1.371,5.276,5.276,0,0,1-1.75.411" transform="translate(-110.502 -206.444)" fill="none" stroke="#de8f62" stroke-linejoin="round" stroke-width="1.028"/>
        <path id="Path_9401" data-name="Path 9401" d="M163.868,359.653a7.229,7.229,0,0,0,7.636,4.372" transform="translate(-107.621 -214.078)" fill="none" stroke="#de8f62" stroke-linejoin="round" stroke-width="1.028"/>
        <path id="Path_9402" data-name="Path 9402" d="M325.47,367.889a3.344,3.344,0,0,1,3.871-.918" transform="translate(-167.559 -216.691)" fill="none" stroke="#de8f62" stroke-linejoin="round" stroke-width="1.028"/>
        <path id="Path_9403" data-name="Path 9403" d="M327.993,367.189a2.887,2.887,0,0,1,1.4,2.07" transform="translate(-168.495 -216.873)" fill="none" stroke="#de8f62" stroke-linejoin="round" stroke-width="1.028"/>
        <path id="Path_9404" data-name="Path 9404" d="M261.687,367.342a2.837,2.837,0,0,0-3.471-.165" transform="translate(-142.614 -216.678)" fill="none" stroke="#de8f62" stroke-linejoin="round" stroke-width="1.028"/>
        <path id="Path_9405" data-name="Path 9405" d="M260.844,366.871a3.8,3.8,0,0,0-1.328,2.2" transform="translate(-143.097 -216.755)" fill="none" stroke="#de8f62" stroke-linejoin="round" stroke-width="1.028"/>
        <path id="Path_9406" data-name="Path 9406" d="M295.158,362.645a15.365,15.365,0,0,0,1.375,8c.369.786.8,1.75.3,2.458a2.34,2.34,0,0,1-2.087.616" transform="translate(-156.162 -215.188)" fill="none" stroke="#de8f62" stroke-linejoin="round" stroke-width="1.028"/>
        <path id="Path_9407" data-name="Path 9407" d="M284.351,381.183a5.238,5.238,0,0,0,5.978,4.66" transform="translate(-152.308 -222.064)" fill="none" stroke="#de8f62" stroke-linejoin="round" stroke-width="1.028"/>
        <path id="Path_9408" data-name="Path 9408" d="M265.858,286.759l1.193,19.754" transform="translate(-145.449 -187.041)" fill="none" stroke="#3d6173" stroke-linejoin="round" stroke-width="1.028"/>
        <path id="Path_9409" data-name="Path 9409" d="M266.467,292.854a14.919,14.919,0,0,1,4.1-8.045" transform="translate(-145.675 -186.318)" fill="none" stroke="#3d6173" stroke-linejoin="round" stroke-width="1.028"/>
        <path id="Path_9410" data-name="Path 9410" d="M358.429,425.548l19.895-21.074" transform="translate(-179.784 -230.702)" fill="none" stroke="#e86171" stroke-linejoin="round" stroke-width="1.028"/>
        <path id="Path_9411" data-name="Path 9411" d="M377.283,391.622c-2.794-11.039-3.88-15.9-11.822-30.1" transform="translate(-182.392 -214.771)" fill="none" stroke="#e86171" stroke-linejoin="round" stroke-width="1.028"/>
        <path id="Path_9412" data-name="Path 9412" d="M337.7,455.212a22.084,22.084,0,0,0,5.369-2.5" transform="translate(-172.093 -248.595)" fill="none" stroke="#de8f62" stroke-linejoin="round" stroke-width="1.028"/>
        <path id="Path_9413" data-name="Path 9413" d="M341.279,460.359l4.383-2.051" transform="translate(-173.423 -250.669)" fill="none" stroke="#de8f62" stroke-linejoin="round" stroke-width="1.028"/>
        <path id="Path_9414" data-name="Path 9414" d="M343.863,465.594,348,463.835" transform="translate(-174.381 -252.719)" fill="none" stroke="#de8f62" stroke-linejoin="round" stroke-width="1.028"/>
        <path id="Path_9415" data-name="Path 9415" d="M348.638,444.616l2.229-1.049" transform="translate(-176.152 -245.202)" fill="none" stroke="#de8f62" stroke-linejoin="round" stroke-width="1.028"/>
        <g id="Group_2987" data-name="Group 2987" transform="translate(134.239 101.76)">
          <path id="Path_9416" data-name="Path 9416" d="M291.162,290.006a15.686,15.686,0,0,0,27.5,2.269" transform="translate(-289.073 -290.006)" fill="none" stroke="#e86171" stroke-linejoin="round" stroke-width="1.028"/>
          <path id="Path_9417" data-name="Path 9417" d="M290.411,292.2l-2.57,1.684" transform="translate(-287.841 -290.82)" fill="none" stroke="#e86171" stroke-linejoin="round" stroke-width="1.028"/>
          <path id="Path_9418" data-name="Path 9418" d="M293.437,296.286l-2.216,2.038" transform="translate(-289.095 -292.335)" fill="none" stroke="#e86171" stroke-linejoin="round" stroke-width="1.028"/>
          <path id="Path_9419" data-name="Path 9419" d="M297.606,299.526l-1.6,2.127" transform="translate(-290.871 -293.537)" fill="none" stroke="#e86171" stroke-linejoin="round" stroke-width="1.028"/>
          <path id="Path_9420" data-name="Path 9420" d="M301.914,302.44l-1.317,2.4" transform="translate(-292.572 -294.618)" fill="none" stroke="#e86171" stroke-linejoin="round" stroke-width="1.028"/>
          <path id="Path_9421" data-name="Path 9421" d="M306.705,304.459l-.985,2.477" transform="translate(-294.472 -295.367)" fill="none" stroke="#e86171" stroke-linejoin="round" stroke-width="1.028"/>
          <path id="Path_9422" data-name="Path 9422" d="M312.374,304.6l-.177,3.19" transform="translate(-296.875 -295.418)" fill="none" stroke="#e86171" stroke-linejoin="round" stroke-width="1.028"/>
          <path id="Path_9423" data-name="Path 9423" d="M318.11,304.458l.177,3.19" transform="translate(-299.068 -295.366)" fill="none" stroke="#e86171" stroke-linejoin="round" stroke-width="1.028"/>
          <path id="Path_9424" data-name="Path 9424" d="M323.009,303.346l.922,2.824" transform="translate(-300.885 -294.954)" fill="none" stroke="#e86171" stroke-linejoin="round" stroke-width="1.028"/>
          <path id="Path_9425" data-name="Path 9425" d="M327.527,300.82l1.6,2.387" transform="translate(-302.561 -294.017)" fill="none" stroke="#e86171" stroke-linejoin="round" stroke-width="1.028"/>
          <path id="Path_9426" data-name="Path 9426" d="M331.247,298.242l1.734,1.994" transform="translate(-303.94 -293.061)" fill="none" stroke="#e86171" stroke-linejoin="round" stroke-width="1.028"/>
          <path id="Path_9427" data-name="Path 9427" d="M334.2,294.86l2.069,1.752" transform="translate(-305.036 -291.806)" fill="none" stroke="#e86171" stroke-linejoin="round" stroke-width="1.028"/>
        </g>
        <path id="Path_9428" data-name="Path 9428" d="M193.088,253.159a15.488,15.488,0,0,0,27.264.781" transform="translate(-118.458 -174.579)" fill="none" stroke="#3d6173" stroke-linejoin="round" stroke-width="1.028"/>
        <g id="Group_2988" data-name="Group 2988" transform="translate(104.829 177.932)" opacity="0.3" style="mix-blend-mode: overlay;isolation: isolate">
          <path id="Path_9429" data-name="Path 9429" d="M315.75,411.087c-1.553,0-1.743,2.422-.174,2.422C317.129,413.509,317.318,411.087,315.75,411.087Z" transform="translate(-268.315 -411.087)" fill="#1d1d1b"/>
          <path id="Path_9430" data-name="Path 9430" d="M307.509,422.761c-1.553,0-1.743,2.422-.174,2.422C308.888,425.183,309.078,422.761,307.509,422.761Z" transform="translate(-265.259 -415.417)" fill="#1d1d1b"/>
          <path id="Path_9431" data-name="Path 9431" d="M295.835,416.581c-1.553,0-1.743,2.422-.174,2.422C297.214,419,297.4,416.581,295.835,416.581Z" transform="translate(-260.929 -413.125)" fill="#1d1d1b"/>
          <path id="Path_9432" data-name="Path 9432" d="M287.137,425.279c-1.553,0-1.743,2.422-.175,2.422S288.7,425.279,287.137,425.279Z" transform="translate(-257.703 -415.61)" fill="#1d1d1b"/>
          <path id="Path_9433" data-name="Path 9433" d="M279.354,414.521c-1.553,0-1.743,2.422-.175,2.422S280.922,414.521,279.354,414.521Z" transform="translate(-254.816 -412.361)" fill="#1d1d1b"/>
          <path id="Path_9434" data-name="Path 9434" d="M268.824,424.593c-1.553,0-1.743,2.422-.174,2.422C270.2,427.015,270.392,424.593,268.824,424.593Z" transform="translate(-250.911 -416.096)" fill="#1d1d1b"/>
          <path id="Path_9435" data-name="Path 9435" d="M265.2,411.087h-.287a1.214,1.214,0,1,0-.175,2.422h.288a1.214,1.214,0,1,0,.174-2.422Z" transform="translate(-249.445 -411.087)" fill="#1d1d1b"/>
          <path id="Path_9436" data-name="Path 9436" d="M326.509,420.93c-1.553,0-1.743,2.422-.175,2.422S328.077,420.93,326.509,420.93Z" transform="translate(-272.306 -414.738)" fill="#1d1d1b"/>
          <path id="Path_9437" data-name="Path 9437" d="M321.7,434.207c-1.553,0-1.743,2.422-.175,2.422S323.27,434.207,321.7,434.207Z" transform="translate(-270.523 -418.456)" fill="#1d1d1b"/>
          <path id="Path_9438" data-name="Path 9438" d="M299.955,435.122c-1.553,0-1.742,2.422-.174,2.422C301.334,437.544,301.524,435.122,299.955,435.122Z" transform="translate(-262.457 -418.747)" fill="#1d1d1b"/>
          <path id="Path_9439" data-name="Path 9439" d="M278.9,435.122c-1.553,0-1.743,2.422-.175,2.422S280.464,435.122,278.9,435.122Z" transform="translate(-254.646 -418.747)" fill="#1d1d1b"/>
          <path id="Path_9440" data-name="Path 9440" d="M254.632,428.255c-1.553,0-1.743,2.422-.175,2.422S256.2,428.255,254.632,428.255Z" transform="translate(-245.646 -416.559)" fill="#1d1d1b"/>
          <path id="Path_9441" data-name="Path 9441" d="M266.237,442.965l-.3-.281a1.245,1.245,0,0,0-1.711-.145,1.228,1.228,0,0,0-.145,1.711l.3.281a1.245,1.245,0,0,0,1.711.145A1.228,1.228,0,0,0,266.237,442.965Z" transform="translate(-249.514 -421.013)" fill="#1d1d1b"/>
          <path id="Path_9442" data-name="Path 9442" d="M289.777,444.965h-.144a1.214,1.214,0,0,0-.175,2.422h.144a1.214,1.214,0,1,0,.175-2.422Z" transform="translate(-258.615 -421.884)" fill="#1d1d1b"/>
          <path id="Path_9443" data-name="Path 9443" d="M312.04,444.965h-.432a1.214,1.214,0,0,0-.175,2.422h.432a1.214,1.214,0,1,0,.174-2.422Z" transform="translate(-266.765 -421.884)" fill="#1d1d1b"/>
          <path id="Path_9444" data-name="Path 9444" d="M335.207,440.616c-1.553,0-1.743,2.422-.174,2.422C336.586,443.038,336.776,440.616,335.207,440.616Z" transform="translate(-275.532 -420.498)" fill="#1d1d1b"/>
          <path id="Path_9445" data-name="Path 9445" d="M302.244,455.037c-1.553,0-1.742,2.422-.174,2.422S303.813,455.037,302.244,455.037Z" transform="translate(-263.306 -425.094)" fill="#1d1d1b"/>
          <path id="Path_9446" data-name="Path 9446" d="M277.751,452.519c-1.553,0-1.742,2.422-.174,2.422C279.13,454.941,279.32,452.519,277.751,452.519Z" transform="translate(-254.222 -424.292)" fill="#1d1d1b"/>
          <path id="Path_9447" data-name="Path 9447" d="M247.993,440.616c-1.553,0-1.742,2.422-.174,2.422C249.372,443.038,249.562,440.616,247.993,440.616Z" transform="translate(-243.184 -420.498)" fill="#1d1d1b"/>
          <path id="Path_9448" data-name="Path 9448" d="M255.776,454.58c-1.553,0-1.743,2.422-.174,2.422C257.155,457,257.345,454.58,255.776,454.58Z" transform="translate(-246.071 -424.949)" fill="#1d1d1b"/>
          <path id="Path_9449" data-name="Path 9449" d="M290.341,465.338c-1.553,0-1.742,2.422-.174,2.422C291.72,467.76,291.91,465.338,290.341,465.338Z" transform="translate(-258.891 -428.377)" fill="#1d1d1b"/>
          <path id="Path_9450" data-name="Path 9450" d="M317.123,461.9c-1.553,0-1.742,2.422-.174,2.422S318.692,461.9,317.123,461.9Z" transform="translate(-268.825 -427.283)" fill="#1d1d1b"/>
          <path id="Path_9451" data-name="Path 9451" d="M266.993,463.736c-1.553,0-1.743,2.422-.175,2.422S268.561,463.736,266.993,463.736Z" transform="translate(-250.231 -427.867)" fill="#1d1d1b"/>
          <path id="Path_9452" data-name="Path 9452" d="M244.789,461.676c-1.553,0-1.743,2.422-.175,2.422S246.357,461.676,244.789,461.676Z" transform="translate(-241.996 -427.21)" fill="#1d1d1b"/>
          <path id="Path_9453" data-name="Path 9453" d="M305.156,474.874c-1.61,0-1.806,2.51-.181,2.51C306.585,477.384,306.781,474.874,305.156,474.874Z" transform="translate(-264.369 -431.411)" fill="#1d1d1b"/>
          <path id="Path_9454" data-name="Path 9454" d="M276.928,475.378c-1.609,0-1.806,2.51-.181,2.51C278.357,477.888,278.554,475.378,276.928,475.378Z" transform="translate(-253.899 -431.571)" fill="#1d1d1b"/>
          <path id="Path_9455" data-name="Path 9455" d="M252.617,472.354h-.159a1.258,1.258,0,0,0-.181,2.51h.159a1.258,1.258,0,1,0,.181-2.51Z" transform="translate(-244.809 -430.608)" fill="#1d1d1b"/>
          <path id="Path_9456" data-name="Path 9456" d="M263.067,486.971c-1.61,0-1.806,2.511-.181,2.511C264.5,489.482,264.692,486.971,263.067,486.971Z" transform="translate(-248.758 -434.817)" fill="#1d1d1b"/>
          <path id="Path_9457" data-name="Path 9457" d="M293.046,487.7a1.3,1.3,0,0,0-1.675-.6l-.476.159a1.261,1.261,0,0,0-.6,1.675,1.3,1.3,0,0,0,1.675.6l.476-.159A1.261,1.261,0,0,0,293.046,487.7Z" transform="translate(-259.298 -434.831)" fill="#1d1d1b"/>
          <path id="Path_9458" data-name="Path 9458" d="M318.513,485.711c-1.609,0-1.806,2.511-.181,2.511C319.942,488.222,320.138,485.711,318.513,485.711Z" transform="translate(-269.323 -434.35)" fill="#1d1d1b"/>
          <path id="Path_9459" data-name="Path 9459" d="M328.846,473.866c-1.609,0-1.806,2.51-.181,2.51C330.275,476.376,330.472,473.866,328.846,473.866Z" transform="translate(-273.156 -431.09)" fill="#1d1d1b"/>
          <path id="Path_9460" data-name="Path 9460" d="M340.188,485.963c-1.61,0-1.806,2.511-.181,2.511C341.617,488.474,341.813,485.963,340.188,485.963Z" transform="translate(-277.362 -434.443)" fill="#1d1d1b"/>
          <path id="Path_9461" data-name="Path 9461" d="M242.4,486.215c-1.609,0-1.806,2.511-.181,2.511C243.829,488.726,244.025,486.215,242.4,486.215Z" transform="translate(-241.093 -434.537)" fill="#1d1d1b"/>
          <path id="Path_9462" data-name="Path 9462" d="M277.684,495.54c-1.609,0-1.806,2.511-.181,2.511C279.113,498.051,279.31,495.54,277.684,495.54Z" transform="translate(-254.18 -437.995)" fill="#1d1d1b"/>
          <path id="Path_9463" data-name="Path 9463" d="M306.416,495.036c-1.61,0-1.806,2.511-.181,2.511C307.845,497.547,308.041,495.036,306.416,495.036Z" transform="translate(-264.836 -437.808)" fill="#1d1d1b"/>
          <path id="Path_9464" data-name="Path 9464" d="M330.863,494.532c-1.61,0-1.806,2.511-.181,2.511C332.292,497.043,332.488,494.532,330.863,494.532Z" transform="translate(-273.904 -437.622)" fill="#1d1d1b"/>
          <path id="Path_9465" data-name="Path 9465" d="M251.473,494.784c-1.609,0-1.806,2.511-.181,2.511C252.9,497.295,253.1,494.784,251.473,494.784Z" transform="translate(-244.458 -437.715)" fill="#1d1d1b"/>
        </g>
        <path id="Path_9466" data-name="Path 9466" d="M397.616,343.485a16.933,16.933,0,0,0,.926-6.638" transform="translate(-194.318 -205.619)" fill="none" stroke="#de8f62" stroke-linejoin="round" stroke-width="1.028"/>
        <path id="Path_9467" data-name="Path 9467" d="M393.033,336.976a25.52,25.52,0,0,0,.786-8.508" transform="translate(-192.618 -202.511)" fill="none" stroke="#de8f62" stroke-linejoin="round" stroke-width="1.028"/>
        <path id="Path_9468" data-name="Path 9468" d="M388.006,330.772a17.346,17.346,0,0,0,.377-6.007" transform="translate(-190.754 -201.138)" fill="none" stroke="#de8f62" stroke-linejoin="round" stroke-width="1.028"/>
        <path id="Path_9469" data-name="Path 9469" d="M109.378,358.8l10.581,21.982" transform="translate(-87.41 -213.763)" fill="none" stroke="#3d6173" stroke-linejoin="round" stroke-width="1.028"/>
        <path id="Path_9470" data-name="Path 9470" d="M128.771,404.9a8.417,8.417,0,0,0-4.493.812" transform="translate(-92.936 -230.846)" fill="none" stroke="#de8f62" stroke-linejoin="round" stroke-width="1.028"/>
        <path id="Path_9471" data-name="Path 9471" d="M115.51,367.219l5.8-8.433" transform="translate(-89.684 -213.756)" fill="none" stroke="#3d6173" stroke-linejoin="round" stroke-width="1.028"/>
        <path id="Path_9472" data-name="Path 9472" d="M142.03,396.527a6.255,6.255,0,0,0-4.366-1.029" transform="translate(-97.901 -227.352)" fill="none" stroke="#de8f62" stroke-linejoin="round" stroke-width="1.028"/>
        <path id="Path_9473" data-name="Path 9473" d="M136.493,399.561a9.416,9.416,0,0,0-4.319-.262l.118-.009" transform="translate(-95.865 -228.732)" fill="none" stroke="#de8f62" stroke-linejoin="round" stroke-width="1.028"/>
        <path id="Path_9474" data-name="Path 9474" d="M146.782,393.553a7.173,7.173,0,0,0-5.261-2.4" transform="translate(-99.332 -225.763)" fill="none" stroke="#de8f62" stroke-linejoin="round" stroke-width="1.028"/>
      </g>
    </g>
  </g>
</svg>
