<svg xmlns="http://www.w3.org/2000/svg" width="22" height="23" viewBox="0 0 22 23">
  <g id="Component_4_6" data-name="Component 4 – 6" transform="translate(0)">
    <path id="Path_9231" data-name="Path 9231" d="M11.991,1.054a1.146,1.146,0,0,1,1.351,0l9.9,7.318a1.028,1.028,0,0,1,.425.825V20.7a3.06,3.06,0,0,1-.967,2.218,3.39,3.39,0,0,1-2.333.919H4.967a3.39,3.39,0,0,1-2.333-.919A3.06,3.06,0,0,1,1.667,20.7V9.2a1.028,1.028,0,0,1,.425-.825ZM3.867,9.708V20.7a1.02,1.02,0,0,0,.322.739,1.13,1.13,0,0,0,.778.306h15.4a1.13,1.13,0,0,0,.778-.306,1.02,1.02,0,0,0,.322-.739V9.708L12.667,3.2Z" transform="translate(-1.667 -0.833)" fill="#758084" fill-rule="evenodd"/>
    <path id="Path_9232" data-name="Path 9232" d="M12.65,11.018a13.116,13.116,0,0,1,8.336-.935l-.573,2.449a10.366,10.366,0,0,0-6.514.7c-1.982,1.013-3.76,3.109-3.76,7.489H7.5C7.5,15.562,9.682,12.535,12.65,11.018Z" transform="translate(0.2 1.447)" fill="#758084" fill-rule="evenodd"/>
  </g>
</svg>
