<svg id="Component_156_1" data-name="Component 156 – 1" xmlns="http://www.w3.org/2000/svg" width="23" height="23" viewBox="0 0 23 23">
  <path id="Path_9237" data-name="Path 9237" d="M12.795,3.359A8.85,8.85,0,0,0,4.988,16.37a1.179,1.179,0,0,1,.09.9l-1.139,3.8,3.8-1.139a1.179,1.179,0,0,1,.9.09A8.847,8.847,0,1,0,12.795,3.359ZM1.59,12.205A11.2,11.2,0,1,1,7.962,22.317L2.518,23.95A1.179,1.179,0,0,1,1.05,22.482l1.633-5.444A11.165,11.165,0,0,1,1.59,12.205Z" transform="translate(-1 -1)" fill="#758084" fill-rule="evenodd"/>
  <text id="i" transform="translate(9 17)" fill="#758084" font-size="15" font-family="Lora-Bold, Lora" font-weight="700" letter-spacing="0.02em"><tspan x="0" y="0">i</tspan></text>
</svg>
