<svg id="Component_10" data-name="Component 10" xmlns="http://www.w3.org/2000/svg" width="218.821" height="94" viewBox="0 0 218.821 94">
  <g id="Group_2973" data-name="Group 2973" transform="translate(0 12.191)">
    <g id="Group_2968" data-name="Group 2968" transform="translate(21.44 53.97)">
      <circle id="Ellipse_1163" data-name="Ellipse 1163" cx="7.092" cy="7.092" r="7.092" transform="translate(15.77 5.468)" fill="#fff"/>
      <path id="Path_9244" data-name="Path 9244" d="M173.671,354.474A26.092,26.092,0,0,0,217.16,335.3a1.812,1.812,0,0,0-3.436-.814,32.651,32.651,0,0,1-9.261,11.308,8.544,8.544,0,0,1-14.481,6.383,32.648,32.648,0,0,1-14.594-.794A1.812,1.812,0,0,0,173.671,354.474Z" transform="translate(-173.061 -333.48)" fill="#fff" style="isolation: isolate"/>
    </g>
    <g id="Group_2969" data-name="Group 2969" transform="translate(0 31.129)">
      <circle id="Ellipse_1164" data-name="Ellipse 1164" cx="7.092" cy="7.092" r="7.092" transform="translate(10.025 12.541)" fill="#fff"/>
      <path id="Path_9245" data-name="Path 9245" d="M153,310.817a26.091,26.091,0,0,0,31.67,35.437,1.812,1.812,0,0,0-.288-3.52,32.653,32.653,0,0,1-13.616-5.313,8.544,8.544,0,0,1-10.545-11.8,32.643,32.643,0,0,1-3.755-14.124A1.812,1.812,0,0,0,153,310.817Z" transform="translate(-150.778 -309.741)" fill="#fff" style="isolation: isolate"/>
    </g>
    <g id="Group_2970" data-name="Group 2970" transform="translate(8.017)">
      <circle id="Ellipse_1165" data-name="Ellipse 1165" cx="7.092" cy="7.092" r="7.092" transform="translate(8.604 12.943)" fill="#fff"/>
      <path id="Path_9246" data-name="Path 9246" d="M187.852,277.521a26.091,26.091,0,0,0-23.916,41.07,1.812,1.812,0,0,0,3.258-1.361,32.659,32.659,0,0,1,.846-14.591A8.544,8.544,0,0,1,176,288.963a32.656,32.656,0,0,1,12.273-7.937A1.812,1.812,0,0,0,187.852,277.521Z" transform="translate(-159.11 -277.387)" fill="#fff" style="isolation: isolate"/>
    </g>
    <g id="Group_2971" data-name="Group 2971" transform="translate(31.115 2.476)">
      <circle id="Ellipse_1166" data-name="Ellipse 1166" cx="7.092" cy="7.092" r="7.092" transform="translate(16.768 7.245)" fill="#fff"/>
      <path id="Path_9247" data-name="Path 9247" d="M229.935,300.555A26.091,26.091,0,0,0,183.485,290.5a1.812,1.812,0,0,0,2.3,2.679,32.657,32.657,0,0,1,14.138-3.705,8.545,8.545,0,0,1,15.468,3.348,32.654,32.654,0,0,1,11.34,9.219A1.812,1.812,0,0,0,229.935,300.555Z" transform="translate(-183.117 -279.961)" fill="#fff" style="isolation: isolate"/>
    </g>
    <g id="Group_2972" data-name="Group 2972" transform="translate(60.607 21.931)">
      <circle id="Ellipse_1167" data-name="Ellipse 1167" cx="7.092" cy="7.092" r="7.092" transform="translate(0 16.526)" fill="#fff"/>
      <path id="Path_9248" data-name="Path 9248" d="M222.046,347.568a26.092,26.092,0,0,0-4.792-47.285,1.813,1.813,0,0,0-1.837,3.017,32.636,32.636,0,0,1,7.893,12.3,8.543,8.543,0,0,1,1.6,15.744,32.656,32.656,0,0,1-5.264,13.635A1.812,1.812,0,0,0,222.046,347.568Z" transform="translate(-213.81 -300.181)" fill="#fff" style="isolation: isolate"/>
    </g>
  </g>
  <g id="Group_3002" data-name="Group 3002" transform="translate(39.021 32.562)">
    <text id="ZIM_platform" data-name="ZIM
platform" transform="translate(114.801 29.438)" fill="#fff" font-size="60" font-family="Futura-Bold, Futura" font-weight="700" letter-spacing="0.02em"><tspan x="-64.29" y="0">ZIM</tspan><tspan font-size="26"><tspan x="-62.543" y="25">platform</tspan></tspan></text>
  </g>
</svg>
