<svg xmlns="http://www.w3.org/2000/svg" width="201.104" height="188.063" viewBox="0 0 201.104 188.063">
  <g id="Group_3049" data-name="Group 3049" transform="translate(-151.818 -1131.842)">
    <path id="Path_9533" data-name="Path 9533" d="M317.216,1592.241H152.478a.66.66,0,0,1,0-1.32H317.216a.66.66,0,1,1,0,1.32Z" transform="translate(0 -291.52)" fill="#74331f"/>
    <path id="Path_9534" data-name="Path 9534" d="M542.807,1402.5a35.555,35.555,0,0,0-2.191,2.869c-10.613,15.427-15.039,44.5-26.532,51.833-12.25,7.815-27.668-1.056-30.625-17.952l16.474-15.506s5.377,12.193,8.87,7.058c2.8-4.119,18.164-25.569,24.077-33.819,1.443-2.011,2.323-3.239,2.323-3.239Z" transform="translate(-210.595 -166.311)" fill="#fdb68d"/>
    <path id="Path_9535" data-name="Path 9535" d="M649.066,1363.618s2.007,3.7-6.653,8.237-8.976,5.491-13.623,7.181a35.568,35.568,0,0,0-2.191,2.869l-7.735-8.386c1.443-2.011,2.323-3.239,2.323-3.239a17.069,17.069,0,0,1,2.64-7.612c2.429-3.7,3.063-6.336,4.964-5.808s-.634,6.125,0,6.653,17.424-8.369,19.642-3.815C648.432,1359.7,650.333,1360.872,649.066,1363.618Z" transform="translate(-296.579 -142.845)" fill="#fdb68d"/>
    <path id="Path_9536" data-name="Path 9536" d="M483.932,1412.392s-9.306,14.282-22.8,21.5a35.77,35.77,0,0,1-8.21,3.225v0c-.233-.457-13.328-26.629-6.82-72.359l3.85.867,2.851.643s12.54,3.678,15.919,15.294S483.932,1412.392,483.932,1412.392Z" transform="translate(-185.725 -147.9)" fill="#f08390"/>
    <path id="Path_9537" data-name="Path 9537" d="M655.328,1370.19a.66.66,0,0,1-.275-1.26c6.195-2.835,15.817-5.925,15.913-5.955a.66.66,0,1,1,.4,1.257c-.1.03-9.644,3.1-15.766,5.9A.665.665,0,0,1,655.328,1370.19Z" transform="translate(-319.315 -146.751)" fill="#f7a87a"/>
    <path id="Path_9538" data-name="Path 9538" d="M354.884,1428.051a106.479,106.479,0,0,0,.268,10.846H289.9v-80.134l2.521-.6.414-.1,2.125-.5.845-.2,8.527-2.015,5.421-1.28,1.975-.467,7.234-1.712,5.993-1.417,6.472,1.461,6.243,1.4,2.887.651,5.425,1.223,2.081.471,3.859.867,2.842.642s-3.089,8.536,0,22.792c1.5,6.957,2.543,11.5,2.873,16.28.357,5.016-.066,10.292-1.527,18.885a92.122,92.122,0,0,0-1.227,12.892Z" transform="translate(-87.683 -138.836)" fill="#f08390"/>
    <path id="Path_9539" data-name="Path 9539" d="M354,1489.751H288.751a.66.66,0,0,1,0-1.32h64.543c-.235-3.393-.309-6.822-.219-10.2a92.735,92.735,0,0,1,1.237-12.989c1.446-8.508,1.872-13.759,1.519-18.728-.3-4.4-1.2-8.527-2.554-14.773l-.306-1.414a.66.66,0,1,1,1.29-.279l.306,1.412c1.367,6.3,2.27,10.467,2.58,14.962.361,5.082-.069,10.421-1.534,19.041a91.469,91.469,0,0,0-1.219,12.8,105.722,105.722,0,0,0,.267,10.783.66.66,0,0,1-.658.71Z" transform="translate(-86.535 -189.03)" fill="#d6606f"/>
    <path id="Path_9540" data-name="Path 9540" d="M396.239,1369c-3.375,1.518-9.135-.932-8.606-5.579,0,0,2.367-6.472,5.834-8.936l6.243,1.4C401.766,1359.541,401.255,1366.744,396.239,1369Z" transform="translate(-149.723 -141.378)" fill="#fff"/>
    <path id="Path_9541" data-name="Path 9541" d="M352.254,1368.4c-4.677-2.1-5.439-8.505-3.855-12.325l7.234-1.712c3.137,2.728,5.227,8.457,5.227,8.457C361.389,1367.464,355.629,1369.91,352.254,1368.4Z" transform="translate(-124.355 -141.301)" fill="#fff"/>
    <path id="Path_9542" data-name="Path 9542" d="M316.224,1537.975l-3.718,10.969s-1.254.137-3.428.365c-12.316,1.276-54.2,5.381-65.508,3.225-6.235-1.188-8.62-4.928-9.288-9.825-.753-5.557.7-12.6,1.263-19.109,0,0,24.288-.634,25.014,5.913a4.252,4.252,0,0,0,2.363,2.974c6.534,3.964,25.1,4.765,37.462,4.418a99.479,99.479,0,0,1,12.122.2C315.925,1537.447,316.224,1537.975,316.224,1537.975Z" transform="translate(-52.231 -248.76)" fill="#fdb68d"/>
    <path id="Path_9543" data-name="Path 9543" d="M442.719,1591.06c-2.376,1.742-3.96.475-3.96.475-3.485,1.267-3.525-1.267-3.525-1.267-3.524.95-3.762-2.059-3.762-2.059-2.376-.158-1.9-3.168,2.042-6.97a11.461,11.461,0,0,0,3.428-8.765s-1.254.136-3.428.365l3.428-12.2c3.419.339,3.718.867,3.718.867a12.3,12.3,0,0,1,7.762,10.97C448.9,1580.975,445.1,1589.318,442.719,1591.06Z" transform="translate(-176.667 -272.29)" fill="#fdb68d"/>
    <path id="Path_9544" data-name="Path 9544" d="M432.836,1620.531a.66.66,0,0,1-.3-1.25c.055-.028,4.024-2.089,7.489-8.438a.66.66,0,0,1,1.159.633c-3.689,6.758-7.882,8.9-8.059,8.987A.659.659,0,0,1,432.836,1620.531Z" transform="translate(-178.03 -303.952)" fill="#f7a87a"/>
    <path id="Path_9545" data-name="Path 9545" d="M443.144,1622.59a.66.66,0,0,1-.4-1.188,18.4,18.4,0,0,0,6.294-10.363.66.66,0,0,1,1.3.239,19.4,19.4,0,0,1-6.8,11.18A.655.655,0,0,1,443.144,1622.59Z" transform="translate(-184.576 -303.952)" fill="#f7a87a"/>
    <path id="Path_9546" data-name="Path 9546" d="M452.8,1625.283a.66.66,0,0,1-.407-1.18c.054-.042,3.648-2.967,5.149-10.823a.66.66,0,1,1,1.3.248c-1.607,8.412-5.471,11.49-5.635,11.617A.658.658,0,0,1,452.8,1625.283Z" transform="translate(-190.707 -305.377)" fill="#f7a87a"/>
    <path id="Path_9547" data-name="Path 9547" d="M262.922,1532.488c-8.827,5.848-22.44,9.016-28.64,10.222-.753-5.557.7-12.6,1.263-19.109,0,0,24.288-.634,25.014,5.913A4.252,4.252,0,0,0,262.922,1532.488Z" transform="translate(-52.231 -248.76)" fill="#f7a87a"/>
    <path id="Path_9548" data-name="Path 9548" d="M341.674,1212.661c-10.481,5.557-21.987,1.307-30.77,1.034a17.059,17.059,0,0,0-5.487.572,72.99,72.99,0,0,1-19.783,2.569c-7.639-.049-15.308-1.408-19.976-5.284-9.346-7.762-3.643-13.147,2.218-20.593s8.871-18.691,7.92-30.884,10.613-18.062,18.533-11.885l28.354-4.593s8.554,20.117,11.088,32.794S354.522,1205.85,341.674,1212.661Z" transform="translate(-69.145 -7.465)" fill="#965137"/>
    <path id="Path_9549" data-name="Path 9549" d="M354.276,1292.682a17.058,17.058,0,0,0-5.487.572,72.985,72.985,0,0,1-19.783,2.57c6.411-11.612,9.17-27.839,9.17-27.839s12.672,6.4,14.731,9.35C354.5,1279.6,354.2,1286.662,354.276,1292.682Z" transform="translate(-112.516 -86.451)" fill="#74331f"/>
    <path id="Path_9550" data-name="Path 9550" d="M378.779,1290.527v27.106s-1.226,7.527-9.719,6.948a10.167,10.167,0,0,1-9.651-8.3v-25.755Z" transform="translate(-131.822 -100.766)" fill="#fdb68d"/>
    <path id="Path_9551" data-name="Path 9551" d="M378.779,1290.527v25.148c-11.6-.49-16.551-10.089-19.37-19.156v-5.992Z" transform="translate(-131.822 -100.766)" fill="#f7a87a"/>
    <path id="Path_9552" data-name="Path 9552" d="M372.158,1216.3c-19.466,0-28.754-11.691-29.925-27.826a62.368,62.368,0,0,1,1.888-19.22c6.177-25.186,41.343-11.4,41.343-11.4a54.731,54.731,0,0,1,5.346,14.639C395.109,1191.49,392.654,1216.3,372.158,1216.3Z" transform="translate(-120.833 -14.124)" fill="#fdb68d"/>
    <path id="Path_9553" data-name="Path 9553" d="M401.526,1291.792c-3.991,0-6.712-3.8-6.747-3.847a.66.66,0,0,1,1.08-.759h0c.155.219,3.835,5.321,8.7,2.361a.66.66,0,1,1,.687,1.127A7.069,7.069,0,0,1,401.526,1291.792Z" transform="translate(-154.207 -98.467)" fill="#7c4531"/>
    <path id="Path_9554" data-name="Path 9554" d="M382.615,1257.858a4.164,4.164,0,0,1-1.923-.489,3.1,3.1,0,0,1-1.794-2.675,3.516,3.516,0,0,1,1.509-3.019,1.89,1.89,0,0,1,1.934-.12.66.66,0,0,1-.621,1.165.556.556,0,0,0-.611.072,2.2,2.2,0,0,0-.892,1.848,1.789,1.789,0,0,0,1.084,1.558,2.5,2.5,0,0,0,3.089-.428,3.787,3.787,0,0,0,.455-4.485,3.481,3.481,0,0,0-3.364-2.043,3.254,3.254,0,0,0-2.835,2.156.66.66,0,1,1-1.245-.437,4.574,4.574,0,0,1,3.981-3.035,4.8,4.8,0,0,1,4.63,2.741,5.1,5.1,0,0,1-.684,6.033A3.785,3.785,0,0,1,382.615,1257.858Z" transform="translate(-143.224 -73.706)" fill="#f7a87a"/>
    <path id="Path_9555" data-name="Path 9555" d="M460.105,1246.624a4.162,4.162,0,0,1-1.923-.488,3.1,3.1,0,0,1-1.794-2.676,3.516,3.516,0,0,1,1.509-3.02,1.891,1.891,0,0,1,1.934-.119.66.66,0,0,1-.621,1.165.555.555,0,0,0-.611.071,2.2,2.2,0,0,0-.892,1.848,1.788,1.788,0,0,0,1.083,1.558,2.5,2.5,0,0,0,3.089-.427,3.789,3.789,0,0,0,.455-4.486,3.469,3.469,0,0,0-3.364-2.042,3.253,3.253,0,0,0-2.834,2.155.66.66,0,1,1-1.245-.437,4.573,4.573,0,0,1,3.981-3.035,4.8,4.8,0,0,1,4.63,2.74,5.1,5.1,0,0,1-.684,6.033A3.782,3.782,0,0,1,460.105,1246.624Z" transform="translate(-192.431 -66.572)" fill="#f7a87a"/>
    <path id="Path_9556" data-name="Path 9556" d="M434.2,1245.268a.66.66,0,0,1-.375-1.2l5.216-3.591-5.385-7.8a.66.66,0,1,1,1.087-.75l5.76,8.343a.659.659,0,0,1-.169.919l-5.76,3.966A.662.662,0,0,1,434.2,1245.268Z" transform="translate(-178.895 -63.372)" fill="#7c4531"/>
    <path id="Path_9557" data-name="Path 9557" d="M393.316,1224.94c0,1.775-.714,2.774-1.595,2.774s-1.595-1-1.595-2.774.714-2.727,1.595-2.727S393.316,1223.165,393.316,1224.94Z" transform="translate(-151.329 -57.386)" fill="#7c4531"/>
    <path id="Path_9558" data-name="Path 9558" d="M390.81,1172.486a4.193,4.193,0,0,1-.629.493c-12.426,7.933-34.989,3.784-34.989,3.784.431-14.89-7.726-14.208-6.6-9,1.1,5.091,1.413,23.839-6.354,20.711a62.368,62.368,0,0,1,1.888-19.22c6.177-25.186,41.343-11.4,41.343-11.4A54.731,54.731,0,0,1,390.81,1172.486Z" transform="translate(-120.833 -14.124)" fill="#f7a87a"/>
    <path id="Path_9559" data-name="Path 9559" d="M385.638,1157.533c5.628-3.6,3.438-21.559-14.483-25.044s-30.119,8.237-30.119,8.237-12.187,27.848-3.876,32.061,8.008-15.268,6.886-20.473,7.034-5.886,6.606,9C350.652,1161.319,373.215,1165.47,385.638,1157.533Z" transform="translate(-115.852 0)" fill="#965137"/>
    <path id="Path_9560" data-name="Path 9560" d="M252.557,1433.824a46.537,46.537,0,0,1-10.243,2.257c-17.508,1.764-27.351-8.382-27.351-8.382s9.5-40.762,14.151-48.365,16.135-8.932,16.135-8.932l2.125-.5c.493,8.052,1.311,24.447.537,33.3C246.855,1415.238,252.557,1433.824,252.557,1433.824Z" transform="translate(-40.098 -151.169)" fill="#f08390"/>
    <path id="Path_9561" data-name="Path 9561" d="M308.5,1491.271a.66.66,0,0,1-.631-.467c-.234-.764-5.728-18.847-4.673-30.875a.66.66,0,1,1,1.315.115c-1.033,11.774,4.563,30.189,4.62,30.373a.66.66,0,0,1-.631.854Z" transform="translate(-96.043 -207.956)" fill="#d6606f"/>
    <path id="Path_9562" data-name="Path 9562" d="M452.394,1217.4c0,1.775-.714,2.774-1.595,2.774s-1.595-1-1.595-2.774.714-2.727,1.595-2.727S452.394,1215.63,452.394,1217.4Z" transform="translate(-188.844 -52.601)" fill="#7c4531"/>
    <path id="Path_9563" data-name="Path 9563" d="M327.141,1256.014c-2.72,8.394-17.632,5.947-18.532-3.478-.873-9.143,9.533-13.044,16.369-7.028S327.141,1256.014,327.141,1256.014Z" transform="translate(-99.531 -70.347)" fill="#fdb68d"/>
    <path id="Path_9564" data-name="Path 9564" d="M326.568,1263a.66.66,0,0,1-.531-1.051c.027-.037,2.691-3.724,1.254-6.484a.66.66,0,0,1,1.171-.61c1.817,3.493-1.232,7.7-1.363,7.877A.658.658,0,0,1,326.568,1263Z" transform="translate(-110.549 -77.887)" fill="#f7a87a"/>
    <path id="Path_9565" data-name="Path 9565" d="M333.68,1266.03a8.949,8.949,0,0,1-2.843-.411.66.66,0,1,1,.426-1.249,11.8,11.8,0,0,0,5.49-.016.66.66,0,0,1,.32,1.281A15.435,15.435,0,0,1,333.68,1266.03Z" transform="translate(-113.394 -84.133)" fill="#f7a87a"/>
  </g>
</svg>
