<svg id="Icon_question_outline" xmlns="http://www.w3.org/2000/svg" width="24" height="24" viewBox="0 0 24 24">
  <rect id="Icon_question_outline_background" data-name="Icon_question_outline background" width="24" height="24" fill="#758084" opacity="0"/>
  <g id="Icon_question_outline-2" data-name="Icon_question_outline" transform="translate(2 2)">
    <path id="Shape" d="M3,8a1,1,0,0,1-.869-1.491l0-.005.005-.009.018-.032.022-.038.044-.075c.081-.136.158-.262.235-.384.165-.262.328-.5.483-.719.1-.135.19-.258.277-.367A2.72,2.72,0,0,0,4,3a1.228,1.228,0,0,0-.211-.665A.862.862,0,0,0,3,2a.841.841,0,0,0-.775.378,1.35,1.35,0,0,0-.178.382,1.329,1.329,0,0,0-.039.167C2,2.949,2,2.967,2,2.981A.171.171,0,0,0,2,3,1,1,0,0,1,0,3,3.275,3.275,0,0,1,.575,1.247,2.85,2.85,0,0,1,3,0,2.876,2.876,0,0,1,5.412,1.165,3.225,3.225,0,0,1,6,3,4.682,4.682,0,0,1,4.783,6.122a10.922,10.922,0,0,0-.634.909c-.08.127-.153.247-.206.338L3.93,7.39l-.043.073-.013.024v0h0v0A1,1,0,0,1,3,8Z" transform="translate(7 4)" fill="#758084"/>
    <path id="Path" d="M2,1A1,1,0,1,1,1,0,1,1,0,0,1,2,1Z" transform="translate(9 13)" fill="#758084"/>
    <path id="Shape-2" data-name="Shape" d="M10,20A10,10,0,1,1,20,10,10.011,10.011,0,0,1,10,20ZM10,2a8,8,0,1,0,8,8A8.009,8.009,0,0,0,10,2Z" fill="#758084"/>
  </g>
</svg>
