<svg id="Icon_settings_outline" xmlns="http://www.w3.org/2000/svg" width="24" height="24" viewBox="0 0 24 24">
  <rect id="Icon_settings_outline_background" data-name="Icon_settings_outline background" width="24" height="24" fill="#fff" opacity="0"/>
  <g id="Icon_settings_outline-2" data-name="Icon_settings_outline" transform="translate(2 2)">
    <path id="Path" d="M4,2A2,2,0,1,1,2,0,2,2,0,0,1,4,2Z" transform="translate(8 8)" fill="#758084"/>
    <path id="Shape" d="M8,16a8,8,0,1,1,8-8A8.009,8.009,0,0,1,8,16ZM8,2a6,6,0,1,0,6,6A6.007,6.007,0,0,0,8,2Z" transform="translate(2 2)" fill="#758084"/>
    <path id="Path-2" data-name="Path" d="M.186,2.5A1,1,0,0,1,.293,1.216L1.216.293A1,1,0,0,1,2.5.186L4.29,1.462,1.462,4.29Z" transform="translate(2.174 2.175)" fill="#758084"/>
    <path id="Path-3" data-name="Path" d="M4.1,1.786A1,1,0,0,1,4,3.074L3.074,4A1,1,0,0,1,1.786,4.1L0,2.828,2.828,0Z" transform="translate(13.536 13.535)" fill="#758084"/>
    <path id="Path-4" data-name="Path" d="M1.786.186A1,1,0,0,1,3.074.293L4,1.216A1,1,0,0,1,4.1,2.5L2.829,4.29,0,1.462Z" transform="translate(13.535 2.174)" fill="#758084"/>
    <path id="Path-5" data-name="Path" d="M2.5,4.1A1,1,0,0,1,1.216,4L.293,3.074A1,1,0,0,1,.186,1.786L1.462,0,4.29,2.829Z" transform="translate(2.174 13.535)" fill="#758084"/>
    <path id="Path-6" data-name="Path" d="M2.164.361A1,1,0,0,1,3,1.347V2.653a1,1,0,0,1-.836.986L0,4V0Z" transform="translate(17 8)" fill="#758084"/>
    <path id="Path-7" data-name="Path" d="M.836,3.639A1,1,0,0,1,0,2.653V1.347A1,1,0,0,1,.836.361L3,0V4Z" transform="translate(0 8)" fill="#758084"/>
    <path id="Path-8" data-name="Path" d="M.361.836A1,1,0,0,1,1.347,0H2.653a1,1,0,0,1,.986.836L4,3H0Z" transform="translate(8)" fill="#758084"/>
    <path id="Path-9" data-name="Path" d="M3.639,2.164A1,1,0,0,1,2.653,3H1.347a1,1,0,0,1-.986-.836L0,0H4Z" transform="translate(8 17)" fill="#758084"/>
  </g>
</svg>
