<svg id="Component_182_3" data-name="Component 182 – 3" xmlns="http://www.w3.org/2000/svg" width="171.36" height="268.544" viewBox="0 0 171.36 268.544">
  <path id="Path_9484" data-name="Path 9484" d="M510.815,539.546c-2.732,3.008-6.649,5.058-11.287,6.348a49.855,49.855,0,0,1-9.756,1.606,79.263,79.263,0,0,1-9.677.072c-17.431-.857-36.343-6.6-43.681-11.775l3.172-29.014c14.623,8.839,32.374,9.1,43.412,8.095a85.685,85.685,0,0,0,10.045-1.466c.308-.068.468-.108.468-.108l.216.329Z" transform="translate(-348.01 -410.487)" fill="#ffaf82"/>
  <path id="Path_9485" data-name="Path 9485" d="M618.042,458.49c-4.5,4.946-12.2,7.313-21.043,7.954h-.008V446.178l3.28-13.822,9.985-42.091,1.154-4.866,8.651,2.247a21.588,21.588,0,0,0-.168,3.941c.012,4.47.659,13.816,1.9,33.163C623.666,454.02,618.042,458.49,618.042,458.49Z" transform="translate(-455.238 -329.431)" fill="#ffc3a2"/>
  <path id="Path_9486" data-name="Path 9486" d="M585.446,559a49.862,49.862,0,0,1-9.756,1.606,79.251,79.251,0,0,1-9.677.072,20.105,20.105,0,0,1-.9-4.854c-.385-8.074,3.268-22.878,3.46-26.338a5.12,5.12,0,0,1,.349-1.5,85.7,85.7,0,0,0,10.045-1.466c.308-.068.468-.108.468-.108l.216.329A191.547,191.547,0,0,0,585.446,559Z" transform="translate(-433.928 -423.593)" fill="#fcad8b"/>
  <path id="Path_9487" data-name="Path 9487" d="M484.2,546.049s-30.5-1.454-51.559-11.4a50.83,50.83,0,0,1-10.173-6.192l1.654-39.143a62.1,62.1,0,0,0,11.054,5.8c24.512,7.894,49.024,4.214,49.024,4.214C483.333,505.965,484.2,546.049,484.2,546.049Z" transform="translate(-338.696 -398.823)" fill="#3baad5"/>
  <path id="Path_9488" data-name="Path 9488" d="M274.333,712.7a137.322,137.322,0,0,1-10,14.226q-1.779,2.223-3.7,4.43a135.926,135.926,0,0,1-19.954,22.918,120.218,120.218,0,0,1-29.07,20.25V726.72q2.043-2.133,4.165-4.414c3.1-3.345,6.313-6.913,9.533-10.658,5.768-6.709,11.567-13.982,16.87-21.528Z" transform="translate(-197.892 -532.913)" fill="#53d0b8"/>
  <path id="Path_9489" data-name="Path 9489" d="M242.175,631.814c-5.3,7.546-11.1,14.819-16.87,21.528-3.22,3.745-6.428,7.313-9.533,10.658q-2.12,2.276-4.165,4.414V608.964l5.872-4.1.08-.056,2.864-2,0,0,1.057,1.41Z" transform="translate(-197.892 -474.607)" fill="#53d0b8"/>
  <path id="Path_9490" data-name="Path 9490" d="M296.849,818.584a.6.6,0,0,1-.585-.468c-1.872-8.26,1.229-18.593,8.295-27.642.708-.914,1.476-1.833,2.281-2.731a.6.6,0,0,1,.336-.189l10.67-2.019a.6.6,0,0,1,.63.287c.012.02,1.2,2.054,2.555,4.524a.6.6,0,0,1-1.054.578c-1.009-1.841-1.926-3.438-2.326-4.129L307.6,788.7c-.737.828-1.44,1.673-2.092,2.515-6.848,8.769-9.865,18.727-8.072,26.638a.6.6,0,0,1-.586.734Z" transform="translate(-254.066 -596.621)" fill="#4d8d80"/>
  <path id="Path_9491" data-name="Path 9491" d="M291.835,507.941a139.786,139.786,0,0,1-17.5,44.362,137.335,137.335,0,0,1-10,14.226q-1.779,2.223-3.7,4.43a73.491,73.491,0,0,1-11.771-4.222A84.526,84.526,0,0,1,225.3,551.249a66.747,66.747,0,0,1-13.7-18.18v-26.6c1.746-1.025,3.741-2.259,5.872-3.7l.08-.056c.933-.629,1.894-1.3,2.868-2,7.714-5.575,16.533-13.506,22.1-23.487a40.54,40.54,0,0,0,5.01-27.1s20.1-1.25,23.459,2.307a67.255,67.255,0,0,0,12.32,10.169,62.122,62.122,0,0,0,11.054,5.8S296.634,485.079,291.835,507.941Z" transform="translate(-197.892 -372.514)" fill="#3baad5"/>
  <path id="Path_9492" data-name="Path 9492" d="M242.527,532.123c-5.079,17.054-15.344,35.062-30.92,45.551V561.361c1.746-1.025,3.741-2.259,5.872-3.7l.08-.056c.933-.629,1.894-1.3,2.868-2C228.14,550.035,236.96,542.1,242.527,532.123Z" transform="translate(-197.892 -427.409)" fill="#247d98"/>
  <path id="Path_9493" data-name="Path 9493" d="M214.148,817.388a.6.6,0,0,1-.24-.05,12.452,12.452,0,0,1-3.937-2.58.6.6,0,0,1,.856-.844,11.263,11.263,0,0,0,3.561,2.322.6.6,0,0,1-.24,1.152Z" transform="translate(-196.685 -615.459)" fill="#4d8d80"/>
  <path id="Path_9494" data-name="Path 9494" d="M210.4,790.483a.6.6,0,0,1-.421-1.029l4.166-4.093a.6.6,0,0,1,.842.857l-4.166,4.093A.6.6,0,0,1,210.4,790.483Z" transform="translate(-196.685 -596.396)" fill="#4d8d80"/>
  <path id="Path_9495" data-name="Path 9495" d="M652.49,338.161a1.993,1.993,0,0,1-1.73,2.4s.384,3.076-3.268,2.307l-.769.769a21.586,21.586,0,0,0-.168,3.941l-9.637-1.322,1.154-4.866s-1.058-8.423,4.133-14.864,9.036-8.074,10.67-6.44-2.211,6.729-6.344,9.132C646.53,329.221,655.47,329.413,652.49,338.161Z" transform="translate(-481.9 -285.426)" fill="#ffc3a2"/>
  <path id="Path_9496" data-name="Path 9496" d="M377.929,383.985l-5.579,24.608a22.224,22.224,0,0,1-.889,4.158c-1.053,3.3-3.269,7.185-7.758,6.032-7.5-1.923-10.409-17.495-10.409-17.495l3.465-16.253,1.946-9.124Z" transform="translate(-292.505 -323.096)" fill="#ffc3a2"/>
  <path id="Path_9497" data-name="Path 9497" d="M384.892,383.985l-5.579,24.608a22.222,22.222,0,0,1-.889,4.158c-6.721-4.414-12.212-16.482-14.7-27.716l1.946-9.124Z" transform="translate(-299.468 -323.096)" fill="#fcad8b"/>
  <path id="Path_9498" data-name="Path 9498" d="M358.479,250.427c10.038.3,16.959-20.176,3.983-30.27,0,0-2.019,4.326-8.075,3.461s-8.074-8.939-24.8-6.056-14.13,18.168-14.13,18.168-15.572-3.749-20.763,11.823,10.958,30.28,29.991,23.07S358.479,250.427,358.479,250.427Z" transform="translate(-252.717 -216.942)" fill="#ffd44d"/>
  <path id="Path_9499" data-name="Path 9499" d="M380.652,314.41c-16.169,0-24.628-8.863-26.791-21.576a53.027,53.027,0,0,1,1.27-21.247c5.623-22.926,37.633-10.382,37.633-10.382a40.6,40.6,0,0,1,2.928,6.553C401.848,285.175,401.88,314.41,380.652,314.41Z" transform="translate(-292.505 -244.212)" fill="#ffc3a2"/>
  <path id="Path_9500" data-name="Path 9500" d="M387.785,255.481s-10.914,10.075-34.849,4.307c0,0,2.975,21.678-6.587,20.5s1.685-27.709,1.685-27.709,3.707-10.958,21.03-10.381S387.785,255.481,387.785,255.481Z" transform="translate(-285.295 -233.792)" fill="#fec307"/>
  <path id="Path_9501" data-name="Path 9501" d="M387.785,256.686s-10.914,10.075-34.849,4.307c0,0,2.975,21.678-6.587,20.5s1.685-27.709,1.685-27.709,3.707-10.958,21.03-10.382S387.785,256.686,387.785,256.686Z" transform="translate(-285.295 -234.597)" fill="#fec307"/>
  <path id="Path_9502" data-name="Path 9502" d="M360.422,271.77s3.012,21.949-6.56,21.063a53.027,53.027,0,0,1,1.27-21.247c5.623-22.926,37.633-10.382,37.633-10.382a40.6,40.6,0,0,1,2.928,6.553C393.273,269.619,382.006,276.969,360.422,271.77Z" transform="translate(-292.505 -244.212)" fill="#fcad8b"/>
  <path id="Path_9503" data-name="Path 9503" d="M387.785,255.481s-10.914,10.075-34.849,4.307c0,0,2.975,21.678-6.587,20.5s1.685-27.709,1.685-27.709,3.707-10.958,21.03-10.381S387.785,255.481,387.785,255.481Z" transform="translate(-285.295 -233.792)" fill="#ffd44d"/>
  <path id="Path_9504" data-name="Path 9504" d="M336.667,358.505c-2.476,7.641-16.049,5.413-16.869-3.166-.795-8.322,8.678-11.874,14.9-6.4S336.667,358.505,336.667,358.505Z" transform="translate(-270.107 -303.334)" fill="#ffc3a2"/>
  <path id="Path_9505" data-name="Path 9505" d="M337.7,365.927a.6.6,0,0,1-.483-.957c.024-.033,2.449-3.39,1.142-5.9a.6.6,0,0,1,1.066-.555c1.654,3.179-1.121,7.009-1.24,7.17A.6.6,0,0,1,337.7,365.927Z" transform="translate(-281.693 -311.262)" fill="#fcad8b"/>
  <path id="Path_9506" data-name="Path 9506" d="M344.578,369.57a8.147,8.147,0,0,1-2.588-.374.6.6,0,1,1,.387-1.138,10.739,10.739,0,0,0,5-.014.6.6,0,0,1,.291,1.165A14.056,14.056,0,0,1,344.578,369.57Z" transform="translate(-284.685 -317.83)" fill="#fcad8b"/>
  <path id="Path_9507" data-name="Path 9507" d="M669.057,365.775a.6.6,0,0,1-.591-.5c-.031-.17-.794-3.958-6.156-4.125a.6.6,0,0,1,.037-1.2c6.376.2,7.294,5.07,7.3,5.119a.6.6,0,0,1-.489.695A.611.611,0,0,1,669.057,365.775Z" transform="translate(-498.467 -312.44)" fill="#fcad8b"/>
  <path id="Path_9508" data-name="Path 9508" d="M665.975,375.987a.6.6,0,0,1-.52-.3c-.032-.054-1.97-3.284-5.055-2.785a.6.6,0,1,1-.192-1.186c3.92-.636,6.192,3.2,6.287,3.368a.6.6,0,0,1-.52.9Z" transform="translate(-497.114 -320.248)" fill="#fcad8b"/>
  <path id="Path_9509" data-name="Path 9509" d="M662.706,387.035a.6.6,0,0,1-.55-.358,1.525,1.525,0,0,0-1.76-.707.6.6,0,1,1-.187-1.187,2.733,2.733,0,0,1,3.049,1.414.6.6,0,0,1-.552.838Z" transform="translate(-497.114 -328.989)" fill="#fcad8b"/>
  <path id="Path_9510" data-name="Path 9510" d="M241.021,482.134c-7.065,13.61-29.414,27.944-29.414,27.944V461.816c12.692-4.61,29.907-10.562,35.931-11.259C247.538,450.557,251.6,461.756,241.021,482.134Z" transform="translate(-197.892 -372.942)" fill="#3baad5"/>
  <path id="Path_9511" data-name="Path 9511" d="M431.948,389.421A12.353,12.353,0,0,1,425.9,387.6a.6.6,0,0,1,.664-1c.269.178,6.617,4.28,10.778-1.181a.6.6,0,0,1,.956.728A7.693,7.693,0,0,1,431.948,389.421Z" transform="translate(-340.813 -329.286)" fill="#794634"/>
  <path id="Path_9512" data-name="Path 9512" d="M393.338,360.658a3.8,3.8,0,0,1-1.75-.444,2.825,2.825,0,0,1-1.633-2.435,3.2,3.2,0,0,1,1.373-2.749,1.719,1.719,0,0,1,1.76-.109.6.6,0,1,1-.565,1.06.507.507,0,0,0-.556.066,2,2,0,0,0-.812,1.682,1.628,1.628,0,0,0,.986,1.418,2.274,2.274,0,0,0,2.812-.389,3.448,3.448,0,0,0,.414-4.083,3.167,3.167,0,0,0-3.063-1.859,2.962,2.962,0,0,0-2.58,1.962.6.6,0,0,1-1.134-.4,4.164,4.164,0,0,1,3.624-2.763,4.373,4.373,0,0,1,4.214,2.495,4.642,4.642,0,0,1-.623,5.492A3.444,3.444,0,0,1,393.338,360.658Z" transform="translate(-316.053 -306.866)" fill="#fcad8b"/>
  <path id="Path_9513" data-name="Path 9513" d="M470.828,349.425a3.792,3.792,0,0,1-1.75-.444,2.824,2.824,0,0,1-1.633-2.436,3.2,3.2,0,0,1,1.373-2.749,1.72,1.72,0,0,1,1.761-.109.6.6,0,0,1-.565,1.06.505.505,0,0,0-.556.066,2,2,0,0,0-.812,1.682,1.629,1.629,0,0,0,.986,1.419,2.273,2.273,0,0,0,2.812-.39,3.448,3.448,0,0,0,.414-4.083,3.168,3.168,0,0,0-3.063-1.859,2.963,2.963,0,0,0-2.58,1.962.6.6,0,0,1-1.134-.4,4.163,4.163,0,0,1,3.624-2.762,4.37,4.37,0,0,1,4.214,2.494,4.642,4.642,0,0,1-.623,5.492A3.444,3.444,0,0,1,470.828,349.425Z" transform="translate(-367.798 -299.365)" fill="#fcad8b"/>
  <path id="Path_9514" data-name="Path 9514" d="M445.333,347.738a.6.6,0,0,1-.341-1.1l4.748-3.269-4.9-7.1a.6.6,0,0,1,.989-.683l5.243,7.594a.6.6,0,0,1-.153.836l-5.243,3.61A.6.6,0,0,1,445.333,347.738Z" transform="translate(-353.565 -295.999)" fill="#794634"/>
  <path id="Path_9515" data-name="Path 9515" d="M404.224,328.388c0,1.615-.65,2.525-1.452,2.525s-1.452-.909-1.452-2.525.65-2.482,1.452-2.482S404.224,326.772,404.224,328.388Z" transform="translate(-324.576 -289.704)" fill="#794634"/>
  <path id="Path_9516" data-name="Path 9516" d="M463.3,320.853c0,1.616-.65,2.525-1.451,2.525s-1.452-.909-1.452-2.525.65-2.482,1.452-2.482S463.3,319.237,463.3,320.853Z" transform="translate(-364.026 -284.673)" fill="#794634"/>
  <path id="Path_9517" data-name="Path 9517" d="M210.4,596.727a.6.6,0,0,1-.6-.6v-212a.6.6,0,0,1,1.2,0v212A.6.6,0,0,1,210.4,596.727Z" transform="translate(-196.685 -328.183)" fill="#4d8d80"/>
  <path id="Path_9518" data-name="Path 9518" d="M186.54,524.264c6.93,4.059,5.672,16.726-2.5,19.033-6.866,1.939-8.459-1.366-6.152-3.759,0,0-5.864,1.356-6.056-.951s3.845-3.172,3.845-3.172-4.133.023-5.191-1.959,3.461-3.039,3.461-3.039-3.685-.192-3.621-3.076S179.812,520.323,186.54,524.264Z" transform="translate(-170.327 -421.079)" fill="#ffc3a2"/>
  <path id="Path_9519" data-name="Path 9519" d="M192.053,567.5c-.065,0-.128,0-.192,0a.6.6,0,1,1,.042-1.2c2.882.1,8.011-2.585,8.062-2.612a.6.6,0,1,1,.56,1.063C200.308,564.859,195.265,567.5,192.053,567.5Z" transform="translate(-184.319 -448.436)" fill="#fcad8b"/>
  <path id="Path_9520" data-name="Path 9520" d="M185.227,554.87a.6.6,0,0,1-.08-1.2c2.921-.4,7.906-1.448,8.847-2.577a.6.6,0,0,1,.923.769c-1.547,1.856-8.788,2.887-9.609,3A.621.621,0,0,1,185.227,554.87Z" transform="translate(-179.876 -439.934)" fill="#fcad8b"/>
  <path id="Path_9521" data-name="Path 9521" d="M180.02,541.488a.6.6,0,0,1-.016-1.2c.063,0,6.354-.191,9.845-1.9a.6.6,0,0,1,.528,1.079c-3.727,1.825-10.073,2.014-10.341,2.021Z" transform="translate(-176.399 -431.551)" fill="#fcad8b"/>
</svg>
