<svg id="apple-seeklogo.com" xmlns="http://www.w3.org/2000/svg" width="17.914" height="22" viewBox="0 0 17.914 22">
  <path id="Path_9241" data-name="Path 9241" d="M14.961,11.688a4.863,4.863,0,0,0,2.953,4.451,12.039,12.039,0,0,1-1.522,3.129c-.917,1.34-1.869,2.675-3.368,2.7C11.55,22,11.076,21.1,9.392,21.1s-2.21.846-3.6.9c-1.447.055-2.549-1.449-3.474-2.785C.425,16.483-1.019,11.5.92,8.13A5.386,5.386,0,0,1,5.472,5.372c1.421-.027,2.762.956,3.631.956s2.5-1.182,4.211-1.009A5.139,5.139,0,0,1,17.338,7.5a4.975,4.975,0,0,0-2.378,4.186M12.192,3.513A4.846,4.846,0,0,0,13.337,0,4.932,4.932,0,0,0,10.1,1.667a4.6,4.6,0,0,0-1.167,3.4,4.08,4.08,0,0,0,3.264-1.558" fill="#fff"/>
</svg>
