<svg id="Group_90" data-name="Group 90" xmlns="http://www.w3.org/2000/svg" width="16.72" height="16.72" viewBox="0 0 16.72 16.72">
  <path id="y" d="M3.705,143.857l-.582,2.173L1,146.074a8.375,8.375,0,0,1-.062-7.806h0l1.894.347.83,1.882a4.989,4.989,0,0,0,.047,3.359Z" transform="translate(0 -133.753)" fill="#fff"/>
  <path id="b" d="M269.658,208.176a8.357,8.357,0,0,1-2.98,8.081h0l-2.385-.122-.338-2.107a4.982,4.982,0,0,0,2.144-2.544h-4.47v-3.307h8.03Z" transform="translate(-253.084 -201.378)" fill="#fff"/>
  <path id="g" d="M43.106,314.184h0a8.362,8.362,0,0,1-12.6-2.558l2.709-2.218a4.972,4.972,0,0,0,7.165,2.546Z" transform="translate(-29.513 -299.305)" fill="#fff"/>
  <path id="r" d="M41.385,1.925,38.677,4.142a4.971,4.971,0,0,0-7.329,2.6l-2.723-2.23h0A8.361,8.361,0,0,1,41.385,1.925Z" transform="translate(-27.689)" fill="#fff"/>
</svg>
