<svg xmlns="http://www.w3.org/2000/svg" width="56.451" height="56.045" viewBox="0 0 56.451 56.045">
  <g id="Group_3240" data-name="Group 3240" transform="translate(-437.084 -484.245)">
    <g id="Group_3229" data-name="Group 3229" transform="translate(438.261 487.207)">
      <g id="Group_3227" data-name="Group 3227" transform="translate(0 -2)">
        <path id="Path_9708" data-name="Path 9708" d="M438.261,497.773a19.989,19.989,0,0,0,10.967-3.76c3.43-2.633,6.892-5.505,10.132-6.266,4.516-1.061,9.135-.721,14.877,2.507,2.214,1.245,3.589,2.352,3.3,3.551-.434,1.775-2.924,1.776-5.953.94s-5.537-1.885-9.61-1.362" transform="translate(-438.261 -487.207)" fill="none" stroke="#62beb8" stroke-linecap="round" stroke-miterlimit="10" stroke-width="2"/>
        <path id="Path_9709" data-name="Path 9709" d="M438.261,511.049s10.445,2.089,15.04-2.4,6.135-5.686,9.817-7.991c3.875-2.424,1.532-4.461,1.532-4.461s-.853-1.65-5.083.44c-4.112,2.03-8.565,6.58-8.565,6.58" transform="translate(-438.261 -489.517)" fill="none" stroke="#62beb8" stroke-linecap="round" stroke-miterlimit="10" stroke-width="2"/>
      </g>
      <g id="Group_3228" data-name="Group 3228" transform="translate(14.787 30.103)">
        <path id="Path_9710" data-name="Path 9710" d="M497.992,541.833a19.989,19.989,0,0,0-10.967,3.76c-3.43,2.633-6.891,5.505-10.131,6.266-4.516,1.061-9.135.72-14.877-2.507-2.214-1.246-3.59-2.352-3.3-3.551.434-1.775,2.925-1.776,5.954-.94s5.537,1.885,9.61,1.362" transform="translate(-458.682 -530.381)" fill="none" stroke="#62beb8" stroke-linecap="round" stroke-miterlimit="10" stroke-width="2"/>
        <path id="Path_9711" data-name="Path 9711" d="M502.648,526.5s-10.445-2.089-15.04,2.4-6.135,5.686-9.818,7.99c-3.875,2.424-1.532,4.461-1.532,4.461s.854,1.65,5.083-.44c4.112-2.03,8.565-6.58,8.565-6.58" transform="translate(-463.337 -526.018)" fill="none" stroke="#62beb8" stroke-linecap="round" stroke-miterlimit="10" stroke-width="2"/>
      </g>
      <path id="Path_9712" data-name="Path 9712" d="M476.151,515.852a6.176,6.176,0,0,1,5.2-3.055c3.447-.072,6.5,3.777,2.429,8.773a74.685,74.685,0,0,1-7.454,7.99" transform="translate(-448.715 -494.267)" fill="none" stroke="#62beb8" stroke-linecap="round" stroke-miterlimit="10" stroke-width="2"/>
      <path id="Path_9713" data-name="Path 9713" d="M472.5,515.852a6.174,6.174,0,0,0-5.2-3.055c-3.447-.072-6.5,3.777-2.429,8.773a74.681,74.681,0,0,0,7.454,7.99" transform="translate(-445.065 -494.267)" fill="none" stroke="#62beb8" stroke-linecap="round" stroke-miterlimit="10" stroke-width="2"/>
    </g>
  </g>
</svg>
