<svg xmlns="http://www.w3.org/2000/svg" width="52" height="51.956" viewBox="0 0 52 51.956">
  <g id="Group_3241" data-name="Group 3241" transform="translate(-90.828 -110.601)">
    <circle id="Ellipse_1211" data-name="Ellipse 1211" cx="2.551" cy="2.551" r="2.551" transform="translate(102.051 111.601)" fill="none" stroke="#62beb8" stroke-linecap="round" stroke-miterlimit="10" stroke-width="2"/>
    <circle id="Ellipse_1212" data-name="Ellipse 1212" cx="2.551" cy="2.551" r="2.551" transform="translate(113.078 111.601)" fill="none" stroke="#62beb8" stroke-linecap="round" stroke-miterlimit="10" stroke-width="2"/>
    <path id="Path_9716" data-name="Path 9716" d="M127.1,114.442c14.806,0,12.733,20.348-7.846,30.56" transform="translate(-8.922 -0.924)" fill="none" stroke="#62beb8" stroke-linecap="round" stroke-miterlimit="10" stroke-width="2"/>
    <path id="Path_9717" data-name="Path 9717" d="M101.792,147.174a38.157,38.157,0,0,0,11.457,8.476" transform="translate(-3.241 -11.571)" fill="none" stroke="#62beb8" stroke-linecap="round" stroke-miterlimit="10" stroke-width="2"/>
    <path id="Path_9718" data-name="Path 9718" d="M102.511,114.442c-9.71,0-12.16,8.751-6.893,17.656" transform="translate(-0.35 -0.924)" fill="none" stroke="#62beb8" stroke-linecap="round" stroke-miterlimit="10" stroke-width="2"/>
    <line id="Line_161" data-name="Line 161" x2="7.986" transform="translate(91.828 131.793)" fill="none" stroke="#62beb8" stroke-linecap="round" stroke-miterlimit="10" stroke-width="2"/>
    <line id="Line_162" data-name="Line 162" x1="2.347" y2="4.3" transform="translate(99.814 127.493)" fill="none" stroke="#62beb8" stroke-linecap="round" stroke-miterlimit="10" stroke-width="2"/>
    <line id="Line_163" data-name="Line 163" x1="3.872" y1="8.496" transform="translate(102.161 127.493)" fill="none" stroke="#62beb8" stroke-linecap="round" stroke-miterlimit="10" stroke-width="2"/>
    <line id="Line_164" data-name="Line 164" x1="4.837" y2="13.644" transform="translate(106.034 122.346)" fill="none" stroke="#62beb8" stroke-linecap="round" stroke-miterlimit="10" stroke-width="2"/>
    <line id="Line_165" data-name="Line 165" x1="3.993" y1="9.447" transform="translate(110.871 122.346)" fill="none" stroke="#62beb8" stroke-linecap="round" stroke-miterlimit="10" stroke-width="2"/>
    <line id="Line_166" data-name="Line 166" x1="4.196" transform="translate(114.864 131.793)" fill="none" stroke="#62beb8" stroke-linecap="round" stroke-miterlimit="10" stroke-width="2"/>
    <path id="Path_9719" data-name="Path 9719" d="M119.238,159.736c-1.1,22.243,23.42,23.01,24.085,3.66" transform="translate(-8.904 -15.658)" fill="none" stroke="#62beb8" stroke-linecap="round" stroke-miterlimit="10" stroke-width="2"/>
    <circle id="Ellipse_1213" data-name="Ellipse 1213" cx="3.046" cy="3.046" r="3.046" transform="translate(131.737 141.033)" fill="none" stroke="#62beb8" stroke-linecap="round" stroke-miterlimit="10" stroke-width="2"/>
    <path id="Path_9720" data-name="Path 9720" d="M148.908,162.955a7.262,7.262,0,1,1,5.324.078" transform="translate(-17.102 -12.156)" fill="none" stroke="#62beb8" stroke-linecap="round" stroke-miterlimit="10" stroke-width="2"/>
  </g>
</svg>
