<svg xmlns="http://www.w3.org/2000/svg" width="59.8" height="47.804" viewBox="0 0 59.8 47.804">
  <g id="Group_3251" data-name="Group 3251" transform="translate(-65.419 -535.268)">
    <rect id="Rectangle_2274" data-name="Rectangle 2274" width="57.8" height="7.287" rx="3.644" transform="translate(66.419 574.785)" fill="none" stroke="#ffcd83" stroke-miterlimit="10" stroke-width="2"/>
    <rect id="Rectangle_2275" data-name="Rectangle 2275" width="35.568" height="21.688" transform="translate(77.535 553.097)" fill="none" stroke="#ffcd83" stroke-miterlimit="10" stroke-width="2"/>
    <rect id="Rectangle_2276" data-name="Rectangle 2276" width="44.59" height="8.091" rx="1.224" transform="translate(73.024 545.006)" fill="none" stroke="#ffcd83" stroke-miterlimit="10" stroke-width="2"/>
    <path id="Path_9735" data-name="Path 9735" d="M143.277,314.008H98.891a.048.048,0,0,1-.037-.079l7.037-8.659h30.385l7.037,8.659A.048.048,0,0,1,143.277,314.008Z" transform="translate(-25.765 230.998)" fill="none" stroke="#ffcd83" stroke-miterlimit="10" stroke-width="2"/>
    <path id="Rectangle_2277" data-name="Rectangle 2277" d="M8.892,0h0a8.892,8.892,0,0,1,8.892,8.892v8.371a0,0,0,0,1,0,0H0a0,0,0,0,1,0,0V8.892A8.892,8.892,0,0,1,8.892,0Z" transform="translate(86.427 557.435)" fill="none" stroke="#ffcd83" stroke-miterlimit="10" stroke-width="2"/>
    <path id="Path_9736" data-name="Path 9736" d="M102.847,353.395H97.061V348.84a5.786,5.786,0,0,1,5.786-5.786h0" transform="translate(-25.312 221.39)" fill="none" stroke="#ffcd83" stroke-miterlimit="10" stroke-width="2"/>
    <path id="Path_9737" data-name="Path 9737" d="M152.515,353.395H158.3V348.84a5.786,5.786,0,0,0-5.786-5.786h0" transform="translate(-39.413 221.39)" fill="none" stroke="#ffcd83" stroke-miterlimit="10" stroke-width="2"/>
  </g>
</svg>
