<svg xmlns="http://www.w3.org/2000/svg" width="54.417" height="53.845" viewBox="0 0 54.417 53.845">
  <g id="Group_3242" data-name="Group 3242" transform="translate(1.37 1.37)">
    <line id="Line_143" data-name="Line 143" y1="8.766" x2="14.755" transform="translate(21.684 16.302)" fill="none" stroke="#ffcd83" stroke-linecap="round" stroke-miterlimit="10" stroke-width="2"/>
    <line id="Line_144" data-name="Line 144" x1="15.241" y1="8.766" transform="translate(36.439 16.302)" fill="none" stroke="#ffcd83" stroke-linecap="round" stroke-miterlimit="10" stroke-width="2"/>
    <line id="Line_145" data-name="Line 145" y1="8.583" x2="14.755" transform="translate(36.925 25.067)" fill="none" stroke="#ffcd83" stroke-linecap="round" stroke-miterlimit="10" stroke-width="2"/>
    <line id="Line_146" data-name="Line 146" x2="15.241" y2="8.583" transform="translate(21.684 25.067)" fill="none" stroke="#ffcd83" stroke-linecap="round" stroke-miterlimit="10" stroke-width="2"/>
    <line id="Line_147" data-name="Line 147" y1="11.452" transform="translate(36.864 33.914)" fill="none" stroke="#ffcd83" stroke-linecap="round" stroke-miterlimit="10" stroke-width="2"/>
    <line id="Line_148" data-name="Line 148" y2="17.447" transform="translate(21.684 25.067)" fill="none" stroke="#ffcd83" stroke-linecap="round" stroke-miterlimit="10" stroke-width="2"/>
    <line id="Line_149" data-name="Line 149" y2="16.744" transform="translate(51.68 25.77)" fill="none" stroke="#ffcd83" stroke-linecap="round" stroke-miterlimit="10" stroke-width="2"/>
    <line id="Line_150" data-name="Line 150" x2="15.18" y2="8.593" transform="translate(21.684 42.514)" fill="none" stroke="#ffcd83" stroke-linecap="round" stroke-miterlimit="10" stroke-width="2"/>
    <line id="Line_151" data-name="Line 151" x1="14.815" y2="8.593" transform="translate(36.864 42.514)" fill="none" stroke="#ffcd83" stroke-linecap="round" stroke-miterlimit="10" stroke-width="2"/>
    <line id="Line_152" data-name="Line 152" y1="8.766" x2="14.755" transform="translate(0 0)" fill="none" stroke="#ffcd83" stroke-linecap="round" stroke-miterlimit="10" stroke-width="2"/>
    <line id="Line_153" data-name="Line 153" x1="15.241" y1="8.766" transform="translate(14.755 0)" fill="none" stroke="#ffcd83" stroke-linecap="round" stroke-miterlimit="10" stroke-width="2"/>
    <line id="Line_154" data-name="Line 154" y1="8.583" x2="14.755" transform="translate(15.241 8.766)" fill="none" stroke="#ffcd83" stroke-linecap="round" stroke-miterlimit="10" stroke-width="2"/>
    <line id="Line_155" data-name="Line 155" x2="15.241" y2="8.583" transform="translate(0 8.766)" fill="none" stroke="#ffcd83" stroke-linecap="round" stroke-miterlimit="10" stroke-width="2"/>
    <line id="Line_156" data-name="Line 156" y1="11.452" transform="translate(15.18 17.612)" fill="none" stroke="#ffcd83" stroke-linecap="round" stroke-miterlimit="10" stroke-width="2"/>
    <line id="Line_157" data-name="Line 157" y2="17.447" transform="translate(0 8.766)" fill="none" stroke="#ffcd83" stroke-linecap="round" stroke-miterlimit="10" stroke-width="2"/>
    <line id="Line_158" data-name="Line 158" y2="7.074" transform="translate(29.996 9.468)" fill="none" stroke="#ffcd83" stroke-linecap="round" stroke-miterlimit="10" stroke-width="2"/>
    <line id="Line_159" data-name="Line 159" x2="15.18" y2="8.593" transform="translate(0 26.212)" fill="none" stroke="#ffcd83" stroke-linecap="round" stroke-miterlimit="10" stroke-width="2"/>
    <line id="Line_160" data-name="Line 160" x1="3.585" y2="1.696" transform="translate(15.18 33.11)" fill="none" stroke="#ffcd83" stroke-linecap="round" stroke-miterlimit="10" stroke-width="2"/>
    <path id="Path_9714" data-name="Path 9714" d="M331.373,161.582a1.251,1.251,0,0,0-.839-.186,4.2,4.2,0,0,0,.89-2.465,1.417,1.417,0,0,0-.594-1.353c-.586-.325-1.516-.083-2.844.741l-2.757,1.7v9.78l3.217-1.878c2.217-1.3,3.488-3.107,3.488-4.951A1.568,1.568,0,0,0,331.373,161.582Zm-4.516,1.375v-2.42l1.25-.768c1.045-.644,1.412-.622,1.538-.553s.169.345.169.555c0,.927-.678,1.808-2.017,2.619Zm3.256.039c.14.079.211.28.211.6,0,1.406-1.247,2.438-2.294,3.056l-1.172.689v-2.9l1.427-.857C329.493,162.855,329.95,162.9,330.113,163Z" transform="translate(-283.004 -125.471)" fill="#ffcd83"/>
    <path id="Path_9715" data-name="Path 9715" d="M275.528,143.746l-.135.095a2.317,2.317,0,0,1-2.234.25c-1.893-.649-3.068-2.6-3.068-5.088a2.991,2.991,0,0,1,.962-2.6,2.134,2.134,0,0,1,2.041,0,4.726,4.726,0,0,1,2.015,1.718l.1.136.985-.7-.093-.135a7.086,7.086,0,0,0-2.9-2.44,3.474,3.474,0,0,0-3.357.017c-.937.62-1.432,1.842-1.432,3.532A7.148,7.148,0,0,0,273,145.492a4.593,4.593,0,0,0,1.441.257,3.024,3.024,0,0,0,1.863-.621l.129-.1Z" transform="translate(-265.433 -118.395)" fill="#ffcd83"/>
  </g>
</svg>
